100.ufo
<glyph name="exclam" format="2">
  <advance width="262"/>
  <unicode hex="0021"/>
  <outline>
    <contour>
      <point x="124" y="700" type="line"/>
      <point x="138" y="700" type="line"/>
      <point x="134" y="200" type="line"/>
      <point x="128" y="200" type="line"/>
    </contour>
    <contour>
      <point x="120" y="1" type="curve" smooth="yes"/>
      <point x="120" y="8"/>
      <point x="125" y="12"/>
      <point x="131" y="12" type="curve" smooth="yes"/>
      <point x="137" y="12"/>
      <point x="142" y="8"/>
      <point x="142" y="1" type="curve" smooth="yes"/>
      <point x="142" y="-6"/>
      <point x="137" y="-10"/>
      <point x="131" y="-10" type="curve" smooth="yes"/>
      <point x="125" y="-10"/>
      <point x="120" y="-6"/>
    </contour>
  </outline>
</glyph>
<glyph name="comma" format="2">
  <advance width="276"/>
  <unicode hex="002C"/>
  <outline>
    <contour>
      <point x="175" y="94" type="line"/>
      <point x="186" y="89" type="line"/>
      <point x="76" y="-161" type="line"/>
      <point x="70" y="-159" type="line"/>
    </contour>
  </outline>
</glyph>
<glyph name="period" format="2">
  <advance width="260"/>
  <unicode hex="002E"/>
  <outline>
    <contour>
      <point x="119" y="1" type="curve" smooth="yes"/>
      <point x="119" y="8"/>
      <point x="124" y="12"/>
      <point x="130" y="12" type="curve" smooth="yes"/>
      <point x="136" y="12"/>
      <point x="141" y="8"/>
      <point x="141" y="1" type="curve" smooth="yes"/>
      <point x="141" y="-6"/>
      <point x="136" y="-10"/>
      <point x="130" y="-10" type="curve" smooth="yes"/>
      <point x="124" y="-10"/>
      <point x="119" y="-6"/>
    </contour>
  </outline>
</glyph>
<glyph name="colon" format="2">
  <advance width="300"/>
  <unicode hex="003A"/>
  <outline>
    <contour>
      <point x="119" y="1" type="curve" smooth="yes"/>
      <point x="119" y="8"/>
      <point x="124" y="12"/>
      <point x="130" y="12" type="curve" smooth="yes"/>
      <point x="136" y="12"/>
      <point x="141" y="8"/>
      <point x="141" y="1" type="curve" smooth="yes"/>
      <point x="141" y="-6"/>
      <point x="136" y="-10"/>
      <point x="130" y="-10" type="curve" smooth="yes"/>
      <point x="124" y="-10"/>
      <point x="119" y="-6"/>
    </contour>
    <contour>
      <point x="119" y="349" type="curve" smooth="yes"/>
      <point x="119" y="356"/>
      <point x="124" y="360"/>
      <point x="130" y="360" type="curve" smooth="yes"/>
      <point x="136" y="360"/>
      <point x="141" y="356"/>
      <point x="141" y="349" type="curve" smooth="yes"/>
      <point x="141" y="342"/>
      <point x="136" y="338"/>
      <point x="130" y="338" type="curve" smooth="yes"/>
      <point x="124" y="338"/>
      <point x="119" y="342"/>
    </contour>
  </outline>
</glyph>
<glyph name="I" format="2">
  <advance width="180"/>
  <unicode hex="0049"/>
  <outline>
    <contour>
      <point x="85" y="700" type="line"/>
      <point x="95" y="700" type="line"/>
      <point x="95" y="0" type="line"/>
      <point x="85" y="0" type="line"/>
    </contour>
  </outline>
</glyph>
<glyph name="L" format="2">
  <advance width="430"/>
  <unicode hex="004C"/>
  <outline>
    <contour>
      <point x="90" y="700" type="line"/>
      <point x="100" y="700" type="line"/>
      <point x="100" y="10" type="line"/>
      <point x="410" y="10" type="line"/>
      <point x="410" y="0" type="line"/>
      <point x="90" y="0" type="line"/>
    </contour>
  </outline>
</glyph>
<glyph name="a" format="2">
  <advance width="435"/>
  <unicode hex="0061"/>
  <outline>
    <contour>
      <point x="50" y="133" type="curve" smooth="yes"/>
      <point x="50" y="37"/>
      <point x="122" y="0"/>
      <point x="192" y="0" type="curve" smooth="yes"/>
      <point x="276" y="0"/>
      <point x="355" y="63"/>
      <point x="355" y="210" type="curve"/>
      <point x="361" y="190" type="line"/>
      <point x="360" y="54"/>
      <point x="277" y="-10"/>
      <point x="189" y="-10" type="curve" smooth="yes"/>
      <point x="118" y="-10"/>
      <point x="40" y="31"/>
      <point x="40" y="132" type="curve" smooth="yes"/>
      <point x="40" y="223"/>
      <point x="104" y="273"/>
      <point x="202" y="273" type="curve" smooth="yes"/>
      <point x="279" y="273"/>
      <point x="337" y="242"/>
      <point x="358" y="225" type="curve"/>
      <point x="358" y="212" type="line"/>
      <point x="315" y="246"/>
      <point x="260" y="263"/>
      <point x="202" y="263" type="curve" smooth="yes"/>
      <point x="126" y="263"/>
      <point x="50" y="229"/>
    </contour>
    <contour>
      <point x="74" y="409" type="curve"/>
      <point x="68" y="417" type="line"/>
      <point x="101" y="441"/>
      <point x="147" y="470"/>
      <point x="220" y="470" type="curve" smooth="yes"/>
      <point x="320" y="470"/>
      <point x="365" y="416"/>
      <point x="365" y="320" type="curve" smooth="yes"/>
      <point x="365" y="0" type="line"/>
      <point x="355" y="0" type="line"/>
      <point x="355" y="320" type="line" smooth="yes"/>
      <point x="355" y="357"/>
      <point x="355" y="460"/>
      <point x="218" y="460" type="curve" smooth="yes"/>
      <point x="149" y="460"/>
      <point x="106" y="433"/>
    </contour>
  </outline>
</glyph>
<glyph name="f" format="2">
  <advance width="278"/>
  <unicode hex="0066"/>
  <outline>
    <contour>
      <point x="50" y="460" type="line"/>
      <point x="245" y="460" type="line"/>
      <point x="245" y="450" type="line"/>
      <point x="50" y="450" type="line"/>
    </contour>
    <contour>
      <point x="281" y="733" type="line"/>
      <point x="265" y="753"/>
      <point x="240" y="778"/>
      <point x="203" y="778" type="curve" smooth="yes"/>
      <point x="123" y="778"/>
      <point x="105" y="706"/>
      <point x="105" y="650" type="curve" smooth="yes"/>
      <point x="105" y="0" type="line"/>
      <point x="95" y="0" type="line"/>
      <point x="95" y="650" type="line" smooth="yes"/>
      <point x="95" y="719"/>
      <point x="119" y="788"/>
      <point x="203" y="788" type="curve" smooth="yes"/>
      <point x="246" y="788"/>
      <point x="273" y="760"/>
      <point x="288" y="740" type="curve"/>
    </contour>
  </outline>
</glyph>
<glyph name="m" format="2">
  <advance width="690"/>
  <unicode hex="006D"/>
  <outline>
    <contour>
      <point x="605" y="320" type="curve" smooth="yes"/>
      <point x="605" y="0" type="line"/>
      <point x="595" y="0" type="line"/>
      <point x="595" y="320" type="line" smooth="yes"/>
      <point x="595" y="401"/>
      <point x="562" y="460"/>
      <point x="492" y="460" type="curve" smooth="yes"/>
      <point x="421" y="460"/>
      <point x="350" y="375"/>
      <point x="350" y="280" type="curve" smooth="yes"/>
      <point x="350" y="0" type="line"/>
      <point x="340" y="0" type="line"/>
      <point x="340" y="320" type="line" smooth="yes"/>
      <point x="340" y="401"/>
      <point x="307" y="460"/>
      <point x="237" y="460" type="curve" smooth="yes"/>
      <point x="167" y="460"/>
      <point x="95" y="376"/>
      <point x="95" y="280" type="curve" smooth="yes"/>
      <point x="95" y="0" type="line"/>
      <point x="85" y="0" type="line"/>
      <point x="85" y="460" type="line"/>
      <point x="95" y="460" type="line"/>
      <point x="95" y="329" type="line"/>
      <point x="113" y="413"/>
      <point x="174" y="470"/>
      <point x="237" y="470" type="curve" smooth="yes"/>
      <point x="308" y="470"/>
      <point x="346" y="416"/>
      <point x="350" y="335" type="curve"/>
      <point x="370" y="415"/>
      <point x="430" y="470"/>
      <point x="492" y="470" type="curve" smooth="yes"/>
      <point x="567" y="470"/>
      <point x="605" y="409"/>
    </contour>
  </outline>
</glyph>
<glyph name="n" format="2">
  <advance width="475"/>
  <unicode hex="006E"/>
  <outline>
    <contour>
      <point x="380" y="320" type="line" smooth="yes"/>
      <point x="380" y="401"/>
      <point x="347" y="460"/>
      <point x="257" y="460" type="curve" smooth="yes"/>
      <point x="166" y="460"/>
      <point x="95" y="375"/>
      <point x="95" y="280" type="curve" smooth="yes"/>
      <point x="95" y="0" type="line"/>
      <point x="85" y="0" type="line"/>
      <point x="85" y="460" type="line"/>
      <point x="95" y="460" type="line"/>
      <point x="95" y="328" type="line"/>
      <point x="113" y="412"/>
      <point x="177" y="470"/>
      <point x="257" y="470" type="curve" smooth="yes"/>
      <point x="352" y="470"/>
      <point x="390" y="409"/>
      <point x="390" y="320" type="curve" smooth="yes"/>
      <point x="390" y="0" type="line"/>
      <point x="380" y="0" type="line"/>
    </contour>
  </outline>
</glyph>
<glyph name="s" format="2">
  <advance width="403"/>
  <unicode hex="0073"/>
  <outline>
    <contour>
      <point x="54" y="116" type="line"/>
      <point x="61" y="55"/>
      <point x="104" y="0"/>
      <point x="198" y="0" type="curve" smooth="yes"/>
      <point x="270" y="0"/>
      <point x="322" y="42"/>
      <point x="322" y="117" type="curve" smooth="yes"/>
      <point x="322" y="183"/>
      <point x="265" y="211"/>
      <point x="197" y="231" type="curve" smooth="yes"/>
      <point x="124" y="252"/>
      <point x="67" y="272"/>
      <point x="67" y="359" type="curve" smooth="yes"/>
      <point x="67" y="430"/>
      <point x="121" y="468"/>
      <point x="187" y="468" type="curve" smooth="yes"/>
      <point x="273" y="468"/>
      <point x="312" y="419"/>
      <point x="331" y="368" type="curve"/>
      <point x="321" y="365" type="line"/>
      <point x="303" y="413"/>
      <point x="268" y="458"/>
      <point x="187" y="458" type="curve" smooth="yes"/>
      <point x="126" y="458"/>
      <point x="77" y="424"/>
      <point x="77" y="359" type="curve" smooth="yes"/>
      <point x="77" y="276"/>
      <point x="133" y="260"/>
      <point x="203" y="240" type="curve" smooth="yes"/>
      <point x="269" y="221"/>
      <point x="332" y="189"/>
      <point x="332" y="117" type="curve" smooth="yes"/>
      <point x="332" y="38"/>
      <point x="277" y="-10"/>
      <point x="198" y="-10" type="curve" smooth="yes"/>
      <point x="96" y="-10"/>
      <point x="51" y="51"/>
      <point x="44" y="115" type="curve"/>
    </contour>
  </outline>
</glyph>
<glyph name="t" format="2">
  <advance width="190"/>
  <unicode hex="0074"/>
  <outline>
    <contour>
      <point x="15" y="460" type="line"/>
      <point x="175" y="460" type="line"/>
      <point x="175" y="450" type="line"/>
      <point x="15" y="450" type="line"/>
    </contour>
    <contour>
      <point x="90" y="620" type="line"/>
      <point x="100" y="620" type="line"/>
      <point x="100" y="0" type="line"/>
      <point x="90" y="0" type="line"/>
    </contour>
  </outline>
</glyph>
<glyph name="section" format="2">
  <advance width="398"/>
  <unicode hex="00A7"/>
  <outline>
    <contour>
      <point x="357" y="616" type="line"/>
      <point x="337" y="665"/>
      <point x="267" y="700"/>
      <point x="203" y="700" type="curve" smooth="yes"/>
      <point x="143" y="700"/>
      <point x="69" y="670"/>
      <point x="69" y="599" type="curve" smooth="yes"/>
      <point x="69" y="530"/>
      <point x="172" y="504"/>
      <point x="223" y="483" type="curve" smooth="yes"/>
      <point x="288" y="456"/>
      <point x="368" y="427"/>
      <point x="368" y="360" type="curve" smooth="yes"/>
      <point x="368" y="281"/>
      <point x="304" y="240"/>
      <point x="205" y="240" type="curve"/>
      <point x="205" y="240" type="line"/>
      <point x="295" y="255"/>
      <point x="358" y="290"/>
      <point x="358" y="360" type="curve" smooth="yes"/>
      <point x="358" y="420"/>
      <point x="269" y="454"/>
      <point x="216" y="475" type="curve" smooth="yes"/>
      <point x="153" y="500"/>
      <point x="59" y="522"/>
      <point x="59" y="599" type="curve" smooth="yes"/>
      <point x="59" y="675"/>
      <point x="129" y="710"/>
      <point x="203" y="710" type="curve" smooth="yes"/>
      <point x="276" y="710"/>
      <point x="346" y="671"/>
      <point x="364" y="620" type="curve"/>
    </contour>
    <contour>
      <point x="38" y="127" type="line"/>
      <point x="51" y="61"/>
      <point x="128" y="0"/>
      <point x="215" y="0" type="curve" smooth="yes"/>
      <point x="275" y="0"/>
      <point x="358" y="20"/>
      <point x="358" y="100" type="curve" smooth="yes"/>
      <point x="358" y="180"/>
      <point x="272" y="206"/>
      <point x="209" y="233" type="curve" smooth="yes"/>
      <point x="147" y="260"/>
      <point x="59" y="292"/>
      <point x="59" y="359" type="curve" smooth="yes"/>
      <point x="59" y="415"/>
      <point x="109" y="480"/>
      <point x="223" y="480" type="curve"/>
      <point x="223" y="480" type="line"/>
      <point x="123" y="470"/>
      <point x="69" y="410"/>
      <point x="69" y="359" type="curve" smooth="yes"/>
      <point x="69" y="296"/>
      <point x="165" y="262"/>
      <point x="216" y="241" type="curve" smooth="yes"/>
      <point x="281" y="214"/>
      <point x="368" y="187"/>
      <point x="368" y="100" type="curve" smooth="yes"/>
      <point x="368" y="21"/>
      <point x="294" y="-10"/>
      <point x="215" y="-10" type="curve" smooth="yes"/>
      <point x="130" y="-10"/>
      <point x="44" y="48"/>
      <point x="30" y="123" type="curve"/>
    </contour>
  </outline>
</glyph>
<glyph name="ordfeminine" format="2">
  <advance width="238"/>
  <unicode hex="00AA"/>
  <outline>
    <contour>
      <point x="30" y="528" type="curve" smooth="yes"/>
      <point x="30" y="479"/>
      <point x="67" y="460"/>
      <point x="102" y="460" type="curve" smooth="yes"/>
      <point x="147" y="460"/>
      <point x="183" y="497"/>
      <point x="183" y="540" type="curve"/>
      <point x="186" y="540" type="line"/>
      <point x="186" y="496"/>
      <point x="153" y="455"/>
      <point x="102" y="455" type="curve" smooth="yes"/>
      <point x="64" y="455"/>
      <point x="26" y="476"/>
      <point x="26" y="528" type="curve" smooth="yes"/>
      <point x="26" y="576"/>
      <point x="70" y="600"/>
      <point x="116" y="600" type="curve" smooth="yes"/>
      <point x="155" y="600"/>
      <point x="174" y="587"/>
      <point x="184" y="578" type="curve"/>
      <point x="184" y="572" type="line"/>
      <point x="172" y="583"/>
      <point x="150" y="596"/>
      <point x="116" y="596" type="curve" smooth="yes"/>
      <point x="74" y="596"/>
      <point x="30" y="574"/>
    </contour>
    <contour>
      <point x="48" y="662" type="curve"/>
      <point x="44" y="666" type="line"/>
      <point x="60" y="682"/>
      <point x="86" y="700"/>
      <point x="122" y="700" type="curve" smooth="yes"/>
      <point x="167" y="700"/>
      <point x="188" y="669"/>
      <point x="188" y="625" type="curve" smooth="yes"/>
      <point x="188" y="460" type="line"/>
      <point x="183" y="460" type="line"/>
      <point x="183" y="625" type="line" smooth="yes"/>
      <point x="183" y="668"/>
      <point x="164" y="695"/>
      <point x="122" y="695" type="curve" smooth="yes"/>
      <point x="89" y="695"/>
      <point x="66" y="680"/>
    </contour>
  </outline>
</glyph>
<glyph name="registered" format="2">
  <advance width="800"/>
  <unicode hex="00AE"/>
  <outline>
    <contour>
      <point x="365" y="340" type="line"/>
      <point x="373" y="340" type="line"/>
      <point x="506" y="150" type="line"/>
      <point x="497" y="150" type="line"/>
    </contour>
    <contour>
      <point x="300" y="570" type="line"/>
      <point x="307" y="570" type="line"/>
      <point x="307" y="150" type="line"/>
      <point x="300" y="150" type="line"/>
    </contour>
    <contour>
      <point x="301" y="563" type="line"/>
      <point x="301" y="570" type="line"/>
      <point x="369" y="570" type="line" smooth="yes"/>
      <point x="450" y="570"/>
      <point x="511" y="531"/>
      <point x="511" y="454" type="curve" smooth="yes"/>
      <point x="511" y="377"/>
      <point x="450" y="338"/>
      <point x="369" y="338" type="curve" smooth="yes"/>
      <point x="301" y="338" type="line"/>
      <point x="301" y="344" type="line"/>
      <point x="369" y="344" type="line" smooth="yes"/>
      <point x="448" y="344"/>
      <point x="504" y="380"/>
      <point x="504" y="454" type="curve" smooth="yes"/>
      <point x="504" y="528"/>
      <point x="448" y="563"/>
      <point x="369" y="563" type="curve" smooth="yes"/>
    </contour>
    <contour>
      <point x="50" y="350" type="curve" smooth="yes"/>
      <point x="50" y="147"/>
      <point x="207" y="0"/>
      <point x="400" y="0" type="curve" smooth="yes"/>
      <point x="593" y="0"/>
      <point x="750" y="147"/>
      <point x="750" y="350" type="curve" smooth="yes"/>
      <point x="750" y="553"/>
      <point x="593" y="700"/>
      <point x="400" y="700" type="curve" smooth="yes"/>
      <point x="207" y="700"/>
      <point x="50" y="553"/>
    </contour>
    <contour>
      <point x="40" y="350" type="curve" smooth="yes"/>
      <point x="40" y="559"/>
      <point x="196" y="710"/>
      <point x="400" y="710" type="curve" smooth="yes"/>
      <point x="604" y="710"/>
      <point x="760" y="559"/>
      <point x="760" y="350" type="curve" smooth="yes"/>
      <point x="760" y="141"/>
      <point x="604" y="-10"/>
      <point x="400" y="-10" type="curve" smooth="yes"/>
      <point x="196" y="-10"/>
      <point x="40" y="141"/>
    </contour>
  </outline>
</glyph>
<glyph name="uni00B2" format="2">
  <advance width="332"/>
  <unicode hex="00B2"/>
  <outline>
    <contour>
      <point x="30" y="282" type="line"/>
      <point x="222" y="483" type="line" smooth="yes"/>
      <point x="251" y="514"/>
      <point x="279" y="544"/>
      <point x="279" y="594" type="curve" smooth="yes"/>
      <point x="279" y="641"/>
      <point x="250" y="703"/>
      <point x="172" y="703" type="curve" smooth="yes"/>
      <point x="100" y="703"/>
      <point x="54" y="643"/>
      <point x="54" y="558" type="curve"/>
      <point x="48" y="558" type="line"/>
      <point x="48" y="647"/>
      <point x="97" y="709"/>
      <point x="172" y="709" type="curve" smooth="yes"/>
      <point x="252" y="709"/>
      <point x="285" y="644"/>
      <point x="285" y="594" type="curve" smooth="yes"/>
      <point x="285" y="545"/>
      <point x="257" y="510"/>
      <point x="227" y="479" type="curve" smooth="yes"/>
      <point x="45" y="288" type="line"/>
      <point x="302" y="288" type="line"/>
      <point x="302" y="282" type="line"/>
    </contour>
  </outline>
</glyph>
<glyph name="acute" format="2">
  <advance width="353"/>
  <unicode hex="00B4"/>
  <outline>
    <contour>
      <point x="253" y="692" type="line"/>
      <point x="80" y="535" type="line"/>
      <point x="75" y="540" type="line"/>
      <point x="245" y="700" type="line"/>
    </contour>
  </outline>
</glyph>
<glyph name="mu" format="2">
  <advance width="475"/>
  <unicode hex="00B5"/>
  <outline>
    <contour>
      <point x="95" y="460" type="line"/>
      <point x="95" y="150" type="line" smooth="yes"/>
      <point x="95" y="59"/>
      <point x="128" y="0"/>
      <point x="218" y="0" type="curve" smooth="yes"/>
      <point x="309" y="0"/>
      <point x="380" y="85"/>
      <point x="380" y="180" type="curve" smooth="yes"/>
      <point x="380" y="460" type="line"/>
      <point x="390" y="460" type="line"/>
      <point x="390" y="0" type="line"/>
      <point x="380" y="0" type="line"/>
      <point x="380" y="132" type="line"/>
      <point x="362" y="48"/>
      <point x="298" y="-10"/>
      <point x="218" y="-10" type="curve" smooth="yes"/>
      <point x="150" y="-10"/>
      <point x="112" y="21"/>
      <point x="95" y="74" type="curve"/>
      <point x="95" y="-320" type="line"/>
      <point x="85" y="-320" type="line"/>
      <point x="85" y="460" type="line"/>
    </contour>
  </outline>
</glyph>
<glyph name="paragraph" format="2">
  <advance width="448"/>
  <unicode hex="00B6"/>
  <outline>
    <contour>
      <point x="288" y="270" type="line"/>
      <point x="163" y="270"/>
      <point x="60" y="346"/>
      <point x="60" y="485" type="curve" smooth="yes"/>
      <point x="60" y="624"/>
      <point x="163" y="700"/>
      <point x="288" y="700" type="curve" smooth="yes"/>
      <point x="388" y="700" type="line"/>
      <point x="388" y="-220" type="line"/>
      <point x="378" y="-220" type="line"/>
      <point x="378" y="690" type="line"/>
      <point x="298" y="690" type="line"/>
      <point x="298" y="-220" type="line"/>
      <point x="288" y="-220" type="line"/>
    </contour>
  </outline>
</glyph>
<glyph name="ordmasculine" format="2">
  <advance width="278"/>
  <unicode hex="00BA"/>
  <outline>
    <contour>
      <point x="20" y="580" type="curve" smooth="yes"/>
      <point x="20" y="650"/>
      <point x="71" y="700"/>
      <point x="139" y="700" type="curve" smooth="yes"/>
      <point x="207" y="700"/>
      <point x="258" y="650"/>
      <point x="258" y="580" type="curve" smooth="yes"/>
      <point x="258" y="510"/>
      <point x="207" y="460"/>
      <point x="139" y="460" type="curve" smooth="yes"/>
      <point x="71" y="460"/>
      <point x="20" y="510"/>
    </contour>
    <contour>
      <point x="30" y="580" type="curve" smooth="yes"/>
      <point x="30" y="515"/>
      <point x="79" y="470"/>
      <point x="139" y="470" type="curve" smooth="yes"/>
      <point x="199" y="470"/>
      <point x="248" y="515"/>
      <point x="248" y="580" type="curve" smooth="yes"/>
      <point x="248" y="645"/>
      <point x="199" y="690"/>
      <point x="139" y="690" type="curve" smooth="yes"/>
      <point x="79" y="690"/>
      <point x="30" y="645"/>
    </contour>
  </outline>
</glyph>
<glyph name="Aring" format="2">
  <advance width="600"/>
  <unicode hex="00C5"/>
  <outline>
    <contour>
      <point x="127" y="272" type="line"/>
      <point x="127" y="282" type="line"/>
      <point x="472" y="282" type="line"/>
      <point x="472" y="272" type="line"/>
    </contour>
    <contour>
      <point x="300" y="688" type="line"/>
      <point x="136" y="277" type="line"/>
      <point x="135" y="273" type="line"/>
      <point x="27" y="0" type="line"/>
      <point x="15" y="0" type="line"/>
      <point x="300" y="715" type="line"/>
      <point x="585" y="0" type="line"/>
      <point x="573" y="0" type="line"/>
      <point x="466" y="273" type="line"/>
      <point x="465" y="276" type="line"/>
    </contour>
    <contour>
      <point x="198" y="808" type="curve" smooth="yes"/>
      <point x="198" y="868"/>
      <point x="248" y="908"/>
      <point x="300" y="908" type="curve" smooth="yes"/>
      <point x="352" y="908"/>
      <point x="402" y="868"/>
      <point x="402" y="808" type="curve" smooth="yes"/>
      <point x="402" y="748"/>
      <point x="352" y="708"/>
      <point x="300" y="708" type="curve" smooth="yes"/>
      <point x="248" y="708"/>
      <point x="198" y="748"/>
    </contour>
    <contour>
      <point x="208" y="808" type="curve" smooth="yes"/>
      <point x="208" y="755"/>
      <point x="252" y="718"/>
      <point x="300" y="718" type="curve" smooth="yes"/>
      <point x="348" y="718"/>
      <point x="392" y="755"/>
      <point x="392" y="808" type="curve" smooth="yes"/>
      <point x="392" y="861"/>
      <point x="348" y="898"/>
      <point x="300" y="898" type="curve" smooth="yes"/>
      <point x="252" y="898"/>
      <point x="208" y="861"/>
    </contour>
  </outline>
</glyph>
<glyph name="Egrave" format="2">
  <advance width="510"/>
  <unicode hex="00C8"/>
  <outline>
    <contour>
      <point x="92" y="0" type="line"/>
      <point x="92" y="10" type="line"/>
      <point x="430" y="10" type="line"/>
      <point x="430" y="0" type="line"/>
    </contour>
    <contour>
      <point x="92" y="690" type="line"/>
      <point x="92" y="700" type="line"/>
      <point x="430" y="700" type="line"/>
      <point x="430" y="690" type="line"/>
    </contour>
    <contour>
      <point x="92" y="384" type="line"/>
      <point x="92" y="394" type="line"/>
      <point x="410" y="394" type="line"/>
      <point x="410" y="384" type="line"/>
    </contour>
    <contour>
      <point x="90" y="700" type="line"/>
      <point x="101" y="700" type="line"/>
      <point x="101" y="0" type="line"/>
      <point x="90" y="0" type="line"/>
    </contour>
    <contour>
      <point x="104" y="925" type="line"/>
      <point x="112" y="933" type="line"/>
      <point x="282" y="773" type="line"/>
      <point x="278" y="768" type="line"/>
    </contour>
  </outline>
</glyph>
<glyph name="Idieresis" format="2">
  <advance width="180"/>
  <unicode hex="00CF"/>
  <outline>
    <contour>
      <point x="85" y="700" type="line"/>
      <point x="95" y="700" type="line"/>
      <point x="95" y="0" type="line"/>
      <point x="85" y="0" type="line"/>
    </contour>
    <contour>
      <point x="149" y="799" type="curve" smooth="yes"/>
      <point x="149" y="806"/>
      <point x="154" y="810"/>
      <point x="160" y="810" type="curve" smooth="yes"/>
      <point x="166" y="810"/>
      <point x="171" y="806"/>
      <point x="171" y="799" type="curve" smooth="yes"/>
      <point x="171" y="792"/>
      <point x="166" y="788"/>
      <point x="160" y="788" type="curve" smooth="yes"/>
      <point x="154" y="788"/>
      <point x="149" y="792"/>
    </contour>
    <contour>
      <point x="9" y="799" type="curve" smooth="yes"/>
      <point x="9" y="806"/>
      <point x="14" y="810"/>
      <point x="20" y="810" type="curve" smooth="yes"/>
      <point x="26" y="810"/>
      <point x="31" y="806"/>
      <point x="31" y="799" type="curve" smooth="yes"/>
      <point x="31" y="792"/>
      <point x="26" y="788"/>
      <point x="20" y="788" type="curve" smooth="yes"/>
      <point x="14" y="788"/>
      <point x="9" y="792"/>
    </contour>
  </outline>
</glyph>
<glyph name="Otilde" format="2">
  <advance width="774"/>
  <unicode hex="00D5"/>
  <outline>
    <contour>
      <point x="61" y="350" type="curve" smooth="yes"/>
      <point x="61" y="149"/>
      <point x="196" y="3"/>
      <point x="387" y="3" type="curve" smooth="yes"/>
      <point x="578" y="3"/>
      <point x="713" y="149"/>
      <point x="713" y="350" type="curve" smooth="yes"/>
      <point x="713" y="551"/>
      <point x="578" y="697"/>
      <point x="387" y="697" type="curve" smooth="yes"/>
      <point x="196" y="697"/>
      <point x="61" y="551"/>
    </contour>
    <contour>
      <point x="50" y="350" type="curve" smooth="yes"/>
      <point x="50" y="559"/>
      <point x="193" y="708"/>
      <point x="387" y="708" type="curve" smooth="yes"/>
      <point x="581" y="708"/>
      <point x="724" y="559"/>
      <point x="724" y="350" type="curve" smooth="yes"/>
      <point x="724" y="141"/>
      <point x="581" y="-8"/>
      <point x="387" y="-8" type="curve" smooth="yes"/>
      <point x="193" y="-8"/>
      <point x="50" y="141"/>
    </contour>
    <contour>
      <point x="262" y="789" type="line"/>
      <point x="262" y="818"/>
      <point x="279" y="847"/>
      <point x="324" y="847" type="curve" smooth="yes"/>
      <point x="379" y="847"/>
      <point x="394" y="800"/>
      <point x="448" y="800" type="curve" smooth="yes"/>
      <point x="477" y="800"/>
      <point x="489" y="816"/>
      <point x="504" y="848" type="curve"/>
      <point x="512" y="845" type="line"/>
      <point x="496" y="808"/>
      <point x="476" y="792"/>
      <point x="446" y="792" type="curve" smooth="yes"/>
      <point x="391" y="792"/>
      <point x="371" y="839"/>
      <point x="326" y="839" type="curve" smooth="yes"/>
      <point x="285" y="839"/>
      <point x="270" y="813"/>
      <point x="270" y="788" type="curve"/>
    </contour>
  </outline>
</glyph>
<glyph name="germandbls" format="2">
  <advance width="530"/>
  <unicode hex="00DF"/>
  <outline>
    <contour>
      <point x="300" y="-10" type="curve" smooth="yes"/>
      <point x="244" y="-10"/>
      <point x="167" y="12"/>
      <point x="135" y="46" type="curve"/>
      <point x="142" y="52" type="line"/>
      <point x="174" y="20"/>
      <point x="246" y="0"/>
      <point x="300" y="0" type="curve" smooth="yes"/>
      <point x="406" y="0"/>
      <point x="476" y="86"/>
      <point x="476" y="200" type="curve" smooth="yes"/>
      <point x="476" y="394"/>
      <point x="270" y="336"/>
      <point x="270" y="424" type="curve" smooth="yes"/>
      <point x="270" y="488"/>
      <point x="400" y="523"/>
      <point x="400" y="638" type="curve" smooth="yes"/>
      <point x="400" y="720"/>
      <point x="334" y="784"/>
      <point x="253" y="784" type="curve" smooth="yes"/>
      <point x="157" y="784"/>
      <point x="90" y="696"/>
      <point x="90" y="580" type="curve" smooth="yes"/>
      <point x="90" y="0" type="line"/>
      <point x="80" y="0" type="line"/>
      <point x="80" y="575" type="line" smooth="yes"/>
      <point x="80" y="700"/>
      <point x="151" y="794"/>
      <point x="253" y="794" type="curve" smooth="yes"/>
      <point x="339" y="794"/>
      <point x="410" y="728"/>
      <point x="410" y="638" type="curve" smooth="yes"/>
      <point x="410" y="516"/>
      <point x="280" y="484"/>
      <point x="280" y="424" type="curve" smooth="yes"/>
      <point x="280" y="348"/>
      <point x="486" y="400"/>
      <point x="486" y="202" type="curve" smooth="yes"/>
      <point x="486" y="78"/>
      <point x="411" y="-10"/>
    </contour>
  </outline>
</glyph>
<glyph name="aring" format="2">
  <advance width="435"/>
  <unicode hex="00E5"/>
  <outline>
    <contour>
      <point x="50" y="135" type="curve" smooth="yes"/>
      <point x="50" y="37"/>
      <point x="123" y="0"/>
      <point x="193" y="0" type="curve" smooth="yes"/>
      <point x="283" y="0"/>
      <point x="355" y="74"/>
      <point x="355" y="160" type="curve"/>
      <point x="360" y="160" type="line"/>
      <point x="360" y="71"/>
      <point x="295" y="-10"/>
      <point x="193" y="-10" type="curve" smooth="yes"/>
      <point x="118" y="-10"/>
      <point x="40" y="31"/>
      <point x="40" y="135" type="curve" smooth="yes"/>
      <point x="40" y="232"/>
      <point x="130" y="281"/>
      <point x="221" y="281" type="curve" smooth="yes"/>
      <point x="299" y="281"/>
      <point x="337" y="253"/>
      <point x="358" y="235" type="curve"/>
      <point x="358" y="225" type="line"/>
      <point x="334" y="247"/>
      <point x="289" y="271"/>
      <point x="221" y="271" type="curve" smooth="yes"/>
      <point x="138" y="271"/>
      <point x="50" y="227"/>
    </contour>
    <contour>
      <point x="84" y="395" type="curve"/>
      <point x="77" y="403" type="line"/>
      <point x="110" y="434"/>
      <point x="160" y="470"/>
      <point x="233" y="470" type="curve" smooth="yes"/>
      <point x="323" y="470"/>
      <point x="365" y="409"/>
      <point x="365" y="320" type="curve" smooth="yes"/>
      <point x="365" y="0" type="line"/>
      <point x="355" y="0" type="line"/>
      <point x="355" y="320" type="line" smooth="yes"/>
      <point x="355" y="406"/>
      <point x="316" y="460"/>
      <point x="233" y="460" type="curve" smooth="yes"/>
      <point x="167" y="460"/>
      <point x="121" y="430"/>
    </contour>
    <contour>
      <point x="131" y="630" type="curve" smooth="yes"/>
      <point x="131" y="690"/>
      <point x="181" y="730"/>
      <point x="233" y="730" type="curve" smooth="yes"/>
      <point x="285" y="730"/>
      <point x="335" y="690"/>
      <point x="335" y="630" type="curve" smooth="yes"/>
      <point x="335" y="570"/>
      <point x="285" y="530"/>
      <point x="233" y="530" type="curve" smooth="yes"/>
      <point x="181" y="530"/>
      <point x="131" y="570"/>
    </contour>
    <contour>
      <point x="141" y="630" type="curve" smooth="yes"/>
      <point x="141" y="577"/>
      <point x="185" y="540"/>
      <point x="233" y="540" type="curve" smooth="yes"/>
      <point x="281" y="540"/>
      <point x="325" y="577"/>
      <point x="325" y="630" type="curve" smooth="yes"/>
      <point x="325" y="683"/>
      <point x="281" y="720"/>
      <point x="233" y="720" type="curve" smooth="yes"/>
      <point x="185" y="720"/>
      <point x="141" y="683"/>
    </contour>
  </outline>
</glyph>
<glyph name="ccedilla" format="2">
  <advance width="488"/>
  <unicode hex="00E7"/>
  <outline>
    <contour>
      <point x="50" y="230" type="curve" smooth="yes"/>
      <point x="50" y="96"/>
      <point x="148" y="0"/>
      <point x="273" y="0" type="curve" smooth="yes"/>
      <point x="347" y="0"/>
      <point x="407" y="37"/>
      <point x="428" y="61" type="curve"/>
      <point x="428" y="48" type="line"/>
      <point x="406" y="23"/>
      <point x="346" y="-10"/>
      <point x="273" y="-10" type="curve" smooth="yes"/>
      <point x="141" y="-10"/>
      <point x="40" y="91"/>
      <point x="40" y="230" type="curve" smooth="yes"/>
      <point x="40" y="369"/>
      <point x="141" y="470"/>
      <point x="273" y="470" type="curve" smooth="yes"/>
      <point x="346" y="470"/>
      <point x="406" y="436"/>
      <point x="428" y="412" type="curve"/>
      <point x="428" y="399" type="line"/>
      <point x="407" y="423"/>
      <point x="347" y="460"/>
      <point x="273" y="460" type="curve" smooth="yes"/>
      <point x="148" y="460"/>
      <point x="50" y="364"/>
    </contour>
    <contour>
      <point x="267" y="-3" type="line"/>
      <point x="279" y="-3" type="line"/>
      <point x="223" y="-79" type="line"/>
      <point x="249" y="-63"/>
      <point x="260" y="-55"/>
      <point x="293" y="-55" type="curve" smooth="yes"/>
      <point x="326" y="-55"/>
      <point x="366" y="-80"/>
      <point x="366" y="-129" type="curve" smooth="yes"/>
      <point x="366" y="-190"/>
      <point x="314" y="-223"/>
      <point x="259" y="-223" type="curve" smooth="yes"/>
      <point x="222" y="-223"/>
      <point x="198" y="-213"/>
      <point x="170" y="-185" type="curve"/>
      <point x="177" y="-179" type="line"/>
      <point x="205" y="-203"/>
      <point x="226" y="-213"/>
      <point x="259" y="-213" type="curve" smooth="yes"/>
      <point x="306" y="-213"/>
      <point x="356" y="-185"/>
      <point x="356" y="-129" type="curve" smooth="yes"/>
      <point x="356" y="-85"/>
      <point x="322" y="-65"/>
      <point x="293" y="-65" type="curve" smooth="yes"/>
      <point x="263" y="-65"/>
      <point x="235" y="-75"/>
      <point x="212" y="-91" type="curve"/>
    </contour>
  </outline>
</glyph>
<glyph name="ntilde" format="2">
  <advance width="475"/>
  <unicode hex="00F1"/>
  <outline>
    <contour>
      <point x="95" y="460" type="line"/>
      <point x="95" y="0" type="line"/>
      <point x="85" y="0" type="line"/>
      <point x="85" y="460" type="line"/>
    </contour>
    <contour>
      <point x="380" y="320" type="line" smooth="yes"/>
      <point x="380" y="401"/>
      <point x="347" y="460"/>
      <point x="257" y="460" type="curve" smooth="yes"/>
      <point x="166" y="460"/>
      <point x="95" y="375"/>
      <point x="95" y="280" type="curve"/>
      <point x="90" y="280" type="line"/>
      <point x="90" y="389"/>
      <point x="162" y="470"/>
      <point x="257" y="470" type="curve" smooth="yes"/>
      <point x="352" y="470"/>
      <point x="390" y="409"/>
      <point x="390" y="320" type="curve" smooth="yes"/>
      <point x="390" y="0" type="line"/>
      <point x="380" y="0" type="line"/>
    </contour>
    <contour>
      <point x="112" y="551" type="line"/>
      <point x="112" y="580"/>
      <point x="129" y="609"/>
      <point x="174" y="609" type="curve" smooth="yes"/>
      <point x="229" y="609"/>
      <point x="244" y="562"/>
      <point x="298" y="562" type="curve" smooth="yes"/>
      <point x="327" y="562"/>
      <point x="339" y="578"/>
      <point x="354" y="610" type="curve"/>
      <point x="363" y="607" type="line"/>
      <point x="347" y="570"/>
      <point x="327" y="554"/>
      <point x="297" y="554" type="curve" smooth="yes"/>
      <point x="242" y="554"/>
      <point x="221" y="601"/>
      <point x="176" y="601" type="curve" smooth="yes"/>
      <point x="135" y="601"/>
      <point x="121" y="575"/>
      <point x="121" y="550" type="curve"/>
    </contour>
  </outline>
</glyph>
<glyph name="ograve" format="2">
  <advance width="556"/>
  <unicode hex="00F2"/>
  <outline>
    <contour>
      <point x="45" y="230" type="curve" smooth="yes"/>
      <point x="45" y="369"/>
      <point x="146" y="470"/>
      <point x="278" y="470" type="curve" smooth="yes"/>
      <point x="410" y="470"/>
      <point x="511" y="369"/>
      <point x="511" y="230" type="curve" smooth="yes"/>
      <point x="511" y="91"/>
      <point x="410" y="-10"/>
      <point x="278" y="-10" type="curve" smooth="yes"/>
      <point x="146" y="-10"/>
      <point x="45" y="91"/>
    </contour>
    <contour>
      <point x="55" y="230" type="curve" smooth="yes"/>
      <point x="55" y="96"/>
      <point x="153" y="0"/>
      <point x="278" y="0" type="curve" smooth="yes"/>
      <point x="403" y="0"/>
      <point x="501" y="96"/>
      <point x="501" y="230" type="curve" smooth="yes"/>
      <point x="501" y="364"/>
      <point x="403" y="460"/>
      <point x="278" y="460" type="curve" smooth="yes"/>
      <point x="153" y="460"/>
      <point x="55" y="364"/>
    </contour>
    <contour>
      <point x="142" y="687" type="line"/>
      <point x="150" y="695" type="line"/>
      <point x="320" y="535" type="line"/>
      <point x="316" y="530" type="line"/>
    </contour>
  </outline>
</glyph>
<glyph name="divide" format="2">
  <advance width="623"/>
  <unicode hex="00F7"/>
  <outline>
    <contour>
      <point x="299" y="451" type="curve" smooth="yes"/>
      <point x="299" y="458"/>
      <point x="304" y="462"/>
      <point x="310" y="462" type="curve" smooth="yes"/>
      <point x="316" y="462"/>
      <point x="321" y="458"/>
      <point x="321" y="451" type="curve" smooth="yes"/>
      <point x="321" y="444"/>
      <point x="316" y="440"/>
      <point x="310" y="440" type="curve" smooth="yes"/>
      <point x="304" y="440"/>
      <point x="299" y="444"/>
    </contour>
    <contour>
      <point x="299" y="31" type="curve" smooth="yes"/>
      <point x="299" y="38"/>
      <point x="304" y="42"/>
      <point x="310" y="42" type="curve" smooth="yes"/>
      <point x="316" y="42"/>
      <point x="321" y="38"/>
      <point x="321" y="31" type="curve" smooth="yes"/>
      <point x="321" y="24"/>
      <point x="316" y="20"/>
      <point x="310" y="20" type="curve" smooth="yes"/>
      <point x="304" y="20"/>
      <point x="299" y="24"/>
    </contour>
    <contour>
      <point x="60" y="235" type="line"/>
      <point x="60" y="245" type="line"/>
      <point x="560" y="245" type="line"/>
      <point x="560" y="235" type="line"/>
    </contour>
  </outline>
</glyph>
<glyph name="oslash" format="2">
  <advance width="546"/>
  <unicode hex="00F8"/>
  <outline>
    <contour>
      <point x="45" y="230" type="curve" smooth="yes"/>
      <point x="45" y="369"/>
      <point x="146" y="470"/>
      <point x="278" y="470" type="curve" smooth="yes"/>
      <point x="410" y="470"/>
      <point x="511" y="369"/>
      <point x="511" y="230" type="curve" smooth="yes"/>
      <point x="511" y="91"/>
      <point x="410" y="-10"/>
      <point x="278" y="-10" type="curve" smooth="yes"/>
      <point x="146" y="-10"/>
      <point x="45" y="91"/>
    </contour>
    <contour>
      <point x="55" y="230" type="curve" smooth="yes"/>
      <point x="55" y="96"/>
      <point x="153" y="0"/>
      <point x="278" y="0" type="curve" smooth="yes"/>
      <point x="403" y="0"/>
      <point x="501" y="96"/>
      <point x="501" y="230" type="curve" smooth="yes"/>
      <point x="501" y="364"/>
      <point x="403" y="460"/>
      <point x="278" y="460" type="curve" smooth="yes"/>
      <point x="153" y="460"/>
      <point x="55" y="364"/>
    </contour>
    <contour>
      <point x="458" y="493" type="line"/>
      <point x="467" y="487" type="line"/>
      <point x="77" y="-37" type="line"/>
      <point x="68" y="-31" type="line"/>
    </contour>
  </outline>
</glyph>
<glyph name="yacute" format="2">
  <advance width="425"/>
  <unicode hex="00FD"/>
  <outline>
    <contour>
      <point x="415" y="460" type="line"/>
      <point x="115" y="-220" type="line"/>
      <point x="104" y="-220" type="line"/>
      <point x="210" y="20" type="line"/>
      <point x="10" y="460" type="line"/>
      <point x="22" y="460" type="line"/>
      <point x="221" y="20" type="line"/>
      <point x="210" y="20" type="line"/>
      <point x="404" y="460" type="line"/>
    </contour>
    <contour>
      <point x="368" y="687" type="line"/>
      <point x="195" y="530" type="line"/>
      <point x="190" y="535" type="line"/>
      <point x="360" y="695" type="line"/>
    </contour>
  </outline>
</glyph>
<glyph name="ydieresis" format="2">
  <advance width="425"/>
  <unicode hex="00FF"/>
  <outline>
    <contour>
      <point x="415" y="460" type="line"/>
      <point x="115" y="-220" type="line"/>
      <point x="104" y="-220" type="line"/>
      <point x="210" y="20" type="line"/>
      <point x="10" y="460" type="line"/>
      <point x="22" y="460" type="line"/>
      <point x="221" y="20" type="line"/>
      <point x="210" y="20" type="line"/>
      <point x="404" y="460" type="line"/>
    </contour>
    <contour>
      <point x="282" y="561" type="curve" smooth="yes"/>
      <point x="282" y="568"/>
      <point x="286" y="572"/>
      <point x="292" y="572" type="curve" smooth="yes"/>
      <point x="298" y="572"/>
      <point x="304" y="568"/>
      <point x="304" y="561" type="curve" smooth="yes"/>
      <point x="304" y="554"/>
      <point x="298" y="550"/>
      <point x="292" y="550" type="curve" smooth="yes"/>
      <point x="286" y="550"/>
      <point x="282" y="554"/>
    </contour>
    <contour>
      <point x="122" y="561" type="curve" smooth="yes"/>
      <point x="122" y="568"/>
      <point x="126" y="572"/>
      <point x="132" y="572" type="curve" smooth="yes"/>
      <point x="138" y="572"/>
      <point x="144" y="568"/>
      <point x="144" y="561" type="curve" smooth="yes"/>
      <point x="144" y="554"/>
      <point x="138" y="550"/>
      <point x="132" y="550" type="curve" smooth="yes"/>
      <point x="126" y="550"/>
      <point x="122" y="554"/>
    </contour>
  </outline>
</glyph>
<glyph name="Aogonek" format="2">
  <advance width="600"/>
  <unicode hex="0104"/>
  <outline>
    <contour>
      <point x="129" y="272" type="line"/>
      <point x="129" y="282" type="line"/>
      <point x="472" y="282" type="line"/>
      <point x="472" y="272" type="line"/>
    </contour>
    <contour>
      <point x="300" y="688" type="line"/>
      <point x="136" y="277" type="line"/>
      <point x="135" y="273" type="line"/>
      <point x="27" y="0" type="line"/>
      <point x="15" y="0" type="line"/>
      <point x="300" y="715" type="line"/>
      <point x="585" y="0" type="line"/>
      <point x="573" y="0" type="line"/>
      <point x="466" y="273" type="line"/>
      <point x="465" y="276" type="line"/>
    </contour>
    <contour>
      <point x="619" y="-173" type="curve"/>
      <point x="626" y="-180" type="line"/>
      <point x="611" y="-200"/>
      <point x="571" y="-220"/>
      <point x="528" y="-220" type="curve" smooth="yes"/>
      <point x="464" y="-220"/>
      <point x="425" y="-189"/>
      <point x="425" y="-140" type="curve" smooth="yes"/>
      <point x="425" y="-71"/>
      <point x="508" y="-26"/>
      <point x="578" y="10" type="curve"/>
      <point x="585" y="0" type="line"/>
      <point x="517" y="-32"/>
      <point x="435" y="-83"/>
      <point x="435" y="-140" type="curve" smooth="yes"/>
      <point x="435" y="-186"/>
      <point x="478" y="-210"/>
      <point x="528" y="-210" type="curve" smooth="yes"/>
      <point x="568" y="-210"/>
      <point x="604" y="-191"/>
    </contour>
  </outline>
</glyph>
<glyph name="ccircumflex" format="2">
  <advance width="488"/>
  <unicode hex="0109"/>
  <outline>
    <contour>
      <point x="50" y="230" type="curve" smooth="yes"/>
      <point x="50" y="96"/>
      <point x="148" y="0"/>
      <point x="273" y="0" type="curve" smooth="yes"/>
      <point x="347" y="0"/>
      <point x="407" y="37"/>
      <point x="428" y="61" type="curve"/>
      <point x="428" y="48" type="line"/>
      <point x="406" y="23"/>
      <point x="346" y="-10"/>
      <point x="273" y="-10" type="curve" smooth="yes"/>
      <point x="141" y="-10"/>
      <point x="40" y="91"/>
      <point x="40" y="230" type="curve" smooth="yes"/>
      <point x="40" y="369"/>
      <point x="141" y="470"/>
      <point x="273" y="470" type="curve" smooth="yes"/>
      <point x="346" y="470"/>
      <point x="406" y="436"/>
      <point x="428" y="412" type="curve"/>
      <point x="428" y="399" type="line"/>
      <point x="407" y="423"/>
      <point x="347" y="460"/>
      <point x="273" y="460" type="curve" smooth="yes"/>
      <point x="148" y="460"/>
      <point x="50" y="364"/>
    </contour>
    <contour>
      <point x="273" y="665" type="line"/>
      <point x="120" y="530" type="line"/>
      <point x="113" y="537" type="line"/>
      <point x="273" y="677" type="line"/>
      <point x="433" y="537" type="line"/>
      <point x="426" y="530" type="line"/>
    </contour>
  </outline>
</glyph>
<glyph name="cdotaccent" format="2">
  <advance width="488"/>
  <unicode hex="010B"/>
  <outline>
    <contour>
      <point x="50" y="230" type="curve" smooth="yes"/>
      <point x="50" y="96"/>
      <point x="148" y="0"/>
      <point x="273" y="0" type="curve" smooth="yes"/>
      <point x="347" y="0"/>
      <point x="407" y="37"/>
      <point x="428" y="61" type="curve"/>
      <point x="428" y="48" type="line"/>
      <point x="406" y="23"/>
      <point x="346" y="-10"/>
      <point x="273" y="-10" type="curve" smooth="yes"/>
      <point x="141" y="-10"/>
      <point x="40" y="91"/>
      <point x="40" y="230" type="curve" smooth="yes"/>
      <point x="40" y="369"/>
      <point x="141" y="470"/>
      <point x="273" y="470" type="curve" smooth="yes"/>
      <point x="346" y="470"/>
      <point x="406" y="436"/>
      <point x="428" y="412" type="curve"/>
      <point x="428" y="399" type="line"/>
      <point x="407" y="423"/>
      <point x="347" y="460"/>
      <point x="273" y="460" type="curve" smooth="yes"/>
      <point x="148" y="460"/>
      <point x="50" y="364"/>
    </contour>
    <contour>
      <point x="262" y="551" type="curve" smooth="yes"/>
      <point x="262" y="558"/>
      <point x="267" y="562"/>
      <point x="273" y="562" type="curve" smooth="yes"/>
      <point x="279" y="562"/>
      <point x="284" y="558"/>
      <point x="284" y="551" type="curve" smooth="yes"/>
      <point x="284" y="544"/>
      <point x="279" y="540"/>
      <point x="273" y="540" type="curve" smooth="yes"/>
      <point x="267" y="540"/>
      <point x="262" y="544"/>
    </contour>
  </outline>
</glyph>
<glyph name="Ebreve" format="2">
  <advance width="510"/>
  <unicode hex="0114"/>
  <outline>
    <contour>
      <point x="92" y="0" type="line"/>
      <point x="92" y="10" type="line"/>
      <point x="430" y="10" type="line"/>
      <point x="430" y="0" type="line"/>
    </contour>
    <contour>
      <point x="92" y="690" type="line"/>
      <point x="92" y="700" type="line"/>
      <point x="430" y="700" type="line"/>
      <point x="430" y="690" type="line"/>
    </contour>
    <contour>
      <point x="92" y="384" type="line"/>
      <point x="92" y="394" type="line"/>
      <point x="410" y="394" type="line"/>
      <point x="410" y="384" type="line"/>
    </contour>
    <contour>
      <point x="90" y="700" type="line"/>
      <point x="101" y="700" type="line"/>
      <point x="101" y="0" type="line"/>
      <point x="90" y="0" type="line"/>
    </contour>
    <contour>
      <point x="112" y="908" type="curve"/>
      <point x="122" y="908" type="line"/>
      <point x="122" y="842"/>
      <point x="178" y="778"/>
      <point x="270" y="778" type="curve" smooth="yes"/>
      <point x="362" y="778"/>
      <point x="418" y="842"/>
      <point x="418" y="908" type="curve"/>
      <point x="428" y="908" type="line"/>
      <point x="428" y="839"/>
      <point x="375" y="768"/>
      <point x="270" y="768" type="curve" smooth="yes"/>
      <point x="165" y="768"/>
      <point x="112" y="839"/>
    </contour>
  </outline>
</glyph>
<glyph name="Gcircumflex" format="2">
  <advance width="765"/>
  <unicode hex="011C"/>
  <outline>
    <contour>
      <point x="420" y="330" type="line"/>
      <point x="420" y="340" type="line"/>
      <point x="710" y="340" type="line"/>
      <point x="710" y="156"/>
      <point x="584" y="-8"/>
      <point x="390" y="-8" type="curve" smooth="yes"/>
      <point x="196" y="-8"/>
      <point x="50" y="141"/>
      <point x="50" y="350" type="curve" smooth="yes"/>
      <point x="50" y="559"/>
      <point x="196" y="708"/>
      <point x="390" y="708" type="curve" smooth="yes"/>
      <point x="519" y="708"/>
      <point x="608" y="643"/>
      <point x="668" y="556" type="curve"/>
      <point x="658" y="550" type="line"/>
      <point x="608" y="633"/>
      <point x="512" y="697"/>
      <point x="390" y="697" type="curve" smooth="yes"/>
      <point x="199" y="697"/>
      <point x="61" y="553"/>
      <point x="61" y="350" type="curve" smooth="yes"/>
      <point x="61" y="150"/>
      <point x="198" y="3"/>
      <point x="390" y="3" type="curve" smooth="yes"/>
      <point x="574" y="3"/>
      <point x="695" y="155"/>
      <point x="699" y="330" type="curve"/>
    </contour>
    <contour>
      <point x="390" y="903" type="line"/>
      <point x="237" y="768" type="line"/>
      <point x="230" y="775" type="line"/>
      <point x="390" y="915" type="line"/>
      <point x="550" y="775" type="line"/>
      <point x="543" y="768" type="line"/>
    </contour>
  </outline>
</glyph>
<glyph name="uni0123" format="2">
  <advance width="570"/>
  <unicode hex="0123"/>
  <outline>
    <contour>
      <point x="60" y="-30" type="curve"/>
      <point x="70" y="-30" type="line"/>
      <point x="70" y="-146"/>
      <point x="145" y="-220"/>
      <point x="252" y="-220" type="curve" smooth="yes"/>
      <point x="359" y="-220"/>
      <point x="451" y="-145"/>
      <point x="451" y="10" type="curve" smooth="yes"/>
      <point x="451" y="460" type="line"/>
      <point x="461" y="460" type="line"/>
      <point x="461" y="10" type="line" smooth="yes"/>
      <point x="461" y="-149"/>
      <point x="367" y="-230"/>
      <point x="252" y="-230" type="curve" smooth="yes"/>
      <point x="137" y="-230"/>
      <point x="60" y="-149"/>
    </contour>
    <contour>
      <point x="45" y="230" type="curve" smooth="yes"/>
      <point x="45" y="377"/>
      <point x="138" y="470"/>
      <point x="258" y="470" type="curve" smooth="yes"/>
      <point x="381" y="470"/>
      <point x="456" y="349"/>
      <point x="456" y="230" type="curve" smooth="yes"/>
      <point x="456" y="111"/>
      <point x="381" y="-10"/>
      <point x="258" y="-10" type="curve" smooth="yes"/>
      <point x="138" y="-10"/>
      <point x="45" y="83"/>
    </contour>
    <contour>
      <point x="55" y="230" type="curve" smooth="yes"/>
      <point x="55" y="89"/>
      <point x="145" y="0"/>
      <point x="261" y="0" type="curve" smooth="yes"/>
      <point x="371" y="0"/>
      <point x="451" y="114"/>
      <point x="451" y="235" type="curve" smooth="yes"/>
      <point x="451" y="341"/>
      <point x="371" y="460"/>
      <point x="261" y="460" type="curve" smooth="yes"/>
      <point x="145" y="460"/>
      <point x="55" y="371"/>
    </contour>
    <contour>
      <point x="257.871" y="565.887" type="line"/>
      <point x="247.772" y="572.522" type="line"/>
      <point x="394.979" y="802.588" type="line"/>
      <point x="400.601" y="799.688" type="line"/>
    </contour>
  </outline>
</glyph>
<glyph name="Ibreve" format="2">
  <advance width="180"/>
  <unicode hex="012C"/>
  <outline>
    <contour>
      <point x="85" y="700" type="line"/>
      <point x="95" y="700" type="line"/>
      <point x="95" y="0" type="line"/>
      <point x="85" y="0" type="line"/>
    </contour>
    <contour>
      <point x="-70" y="910" type="curve"/>
      <point x="-60" y="910" type="line"/>
      <point x="-60" y="844"/>
      <point x="-4" y="780"/>
      <point x="88" y="780" type="curve" smooth="yes"/>
      <point x="180" y="780"/>
      <point x="236" y="844"/>
      <point x="236" y="910" type="curve"/>
      <point x="246" y="910" type="line"/>
      <point x="246" y="841"/>
      <point x="193" y="770"/>
      <point x="88" y="770" type="curve" smooth="yes"/>
      <point x="-17" y="770"/>
      <point x="-70" y="841"/>
    </contour>
  </outline>
</glyph>
<glyph name="Iogonek" format="2">
  <advance width="180"/>
  <unicode hex="012E"/>
  <outline>
    <contour>
      <point x="85" y="700" type="line"/>
      <point x="95" y="700" type="line"/>
      <point x="95" y="0" type="line"/>
      <point x="85" y="0" type="line"/>
    </contour>
    <contour>
      <point x="129" y="-173" type="curve"/>
      <point x="136" y="-180" type="line"/>
      <point x="121" y="-200"/>
      <point x="81" y="-220"/>
      <point x="38" y="-220" type="curve" smooth="yes"/>
      <point x="-26" y="-220"/>
      <point x="-65" y="-189"/>
      <point x="-65" y="-140" type="curve" smooth="yes"/>
      <point x="-65" y="-71"/>
      <point x="18" y="-26"/>
      <point x="88" y="10" type="curve"/>
      <point x="95" y="0" type="line"/>
      <point x="27" y="-32"/>
      <point x="-55" y="-83"/>
      <point x="-55" y="-140" type="curve" smooth="yes"/>
      <point x="-55" y="-186"/>
      <point x="-12" y="-210"/>
      <point x="38" y="-210" type="curve" smooth="yes"/>
      <point x="78" y="-210"/>
      <point x="114" y="-191"/>
    </contour>
  </outline>
</glyph>
<glyph name="ldot" format="2">
  <advance width="370"/>
  <unicode hex="0140"/>
  <outline>
    <contour>
      <point x="85" y="780" type="line"/>
      <point x="95" y="780" type="line"/>
      <point x="95" y="0" type="line"/>
      <point x="85" y="0" type="line"/>
    </contour>
    <contour>
      <point x="230" y="396" type="curve" smooth="yes"/>
      <point x="230" y="403"/>
      <point x="235" y="407"/>
      <point x="241" y="407" type="curve" smooth="yes"/>
      <point x="247" y="407"/>
      <point x="252" y="403"/>
      <point x="252" y="396" type="curve" smooth="yes"/>
      <point x="252" y="389"/>
      <point x="247" y="385"/>
      <point x="241" y="385" type="curve" smooth="yes"/>
      <point x="235" y="385"/>
      <point x="230" y="389"/>
    </contour>
  </outline>
</glyph>
<glyph name="nacute" format="2">
  <advance width="475"/>
  <unicode hex="0144"/>
  <outline>
    <contour>
      <point x="95" y="460" type="line"/>
      <point x="95" y="0" type="line"/>
      <point x="85" y="0" type="line"/>
      <point x="85" y="460" type="line"/>
    </contour>
    <contour>
      <point x="380" y="320" type="line" smooth="yes"/>
      <point x="380" y="401"/>
      <point x="347" y="460"/>
      <point x="257" y="460" type="curve" smooth="yes"/>
      <point x="166" y="460"/>
      <point x="95" y="375"/>
      <point x="95" y="280" type="curve"/>
      <point x="90" y="280" type="line"/>
      <point x="90" y="389"/>
      <point x="162" y="470"/>
      <point x="257" y="470" type="curve" smooth="yes"/>
      <point x="352" y="470"/>
      <point x="390" y="409"/>
      <point x="390" y="320" type="curve" smooth="yes"/>
      <point x="390" y="0" type="line"/>
      <point x="380" y="0" type="line"/>
    </contour>
    <contour>
      <point x="383" y="697" type="line"/>
      <point x="210" y="540" type="line"/>
      <point x="205" y="545" type="line"/>
      <point x="375" y="705" type="line"/>
    </contour>
  </outline>
</glyph>
<glyph name="Obreve" format="2">
  <advance width="774"/>
  <unicode hex="014E"/>
  <outline>
    <contour>
      <point x="61" y="350" type="curve" smooth="yes"/>
      <point x="61" y="149"/>
      <point x="196" y="3"/>
      <point x="387" y="3" type="curve" smooth="yes"/>
      <point x="578" y="3"/>
      <point x="713" y="149"/>
      <point x="713" y="350" type="curve" smooth="yes"/>
      <point x="713" y="551"/>
      <point x="578" y="697"/>
      <point x="387" y="697" type="curve" smooth="yes"/>
      <point x="196" y="697"/>
      <point x="61" y="551"/>
    </contour>
    <contour>
      <point x="50" y="350" type="curve" smooth="yes"/>
      <point x="50" y="559"/>
      <point x="193" y="708"/>
      <point x="387" y="708" type="curve" smooth="yes"/>
      <point x="581" y="708"/>
      <point x="724" y="559"/>
      <point x="724" y="350" type="curve" smooth="yes"/>
      <point x="724" y="141"/>
      <point x="581" y="-8"/>
      <point x="387" y="-8" type="curve" smooth="yes"/>
      <point x="193" y="-8"/>
      <point x="50" y="141"/>
    </contour>
    <contour>
      <point x="229" y="908" type="curve"/>
      <point x="239" y="908" type="line"/>
      <point x="239" y="842"/>
      <point x="295" y="778"/>
      <point x="387" y="778" type="curve" smooth="yes"/>
      <point x="479" y="778"/>
      <point x="535" y="842"/>
      <point x="535" y="908" type="curve"/>
      <point x="545" y="908" type="line"/>
      <point x="545" y="839"/>
      <point x="492" y="768"/>
      <point x="387" y="768" type="curve" smooth="yes"/>
      <point x="282" y="768"/>
      <point x="229" y="839"/>
    </contour>
  </outline>
</glyph>
<glyph name="rcaron" format="2">
  <advance width="290"/>
  <unicode hex="0159"/>
  <outline>
    <contour>
      <point x="95" y="460" type="line"/>
      <point x="95" y="0" type="line"/>
      <point x="85" y="0" type="line"/>
      <point x="85" y="460" type="line"/>
    </contour>
    <contour>
      <point x="269" y="440" type="line"/>
      <point x="252" y="452"/>
      <point x="232" y="460"/>
      <point x="212" y="460" type="curve" smooth="yes"/>
      <point x="132" y="460"/>
      <point x="95" y="376"/>
      <point x="95" y="280" type="curve"/>
      <point x="90" y="280" type="line"/>
      <point x="90" y="389"/>
      <point x="127" y="470"/>
      <point x="212" y="470" type="curve" smooth="yes"/>
      <point x="235" y="470"/>
      <point x="258" y="460"/>
      <point x="275" y="448" type="curve"/>
    </contour>
    <contour>
      <point x="180" y="542" type="line"/>
      <point x="332" y="678" type="line"/>
      <point x="340" y="670" type="line"/>
      <point x="180" y="530" type="line"/>
      <point x="20" y="670" type="line"/>
      <point x="28" y="678" type="line"/>
    </contour>
  </outline>
</glyph>
<glyph name="Scaron" format="2">
  <advance width="488"/>
  <unicode hex="0160"/>
  <outline>
    <contour>
      <point x="50" y="197" type="line"/>
      <point x="77" y="109"/>
      <point x="134" y="3"/>
      <point x="255" y="3" type="curve" smooth="yes"/>
      <point x="385" y="3"/>
      <point x="432" y="77"/>
      <point x="432" y="175" type="curve" smooth="yes"/>
      <point x="432" y="278"/>
      <point x="343" y="331"/>
      <point x="267" y="359" type="curve" smooth="yes"/>
      <point x="187" y="388"/>
      <point x="80" y="442"/>
      <point x="80" y="550" type="curve" smooth="yes"/>
      <point x="80" y="646"/>
      <point x="159" y="708"/>
      <point x="253" y="708" type="curve" smooth="yes"/>
      <point x="366" y="708"/>
      <point x="421" y="621"/>
      <point x="439" y="550" type="curve"/>
      <point x="429" y="548" type="line"/>
      <point x="410" y="615"/>
      <point x="359" y="697"/>
      <point x="253" y="697" type="curve" smooth="yes"/>
      <point x="163" y="697"/>
      <point x="91" y="636"/>
      <point x="91" y="550" type="curve" smooth="yes"/>
      <point x="91" y="450"/>
      <point x="188" y="399"/>
      <point x="273" y="368" type="curve" smooth="yes"/>
      <point x="356" y="338"/>
      <point x="443" y="283"/>
      <point x="443" y="175" type="curve" smooth="yes"/>
      <point x="443" y="76"/>
      <point x="394" y="-8"/>
      <point x="255" y="-8" type="curve" smooth="yes"/>
      <point x="130" y="-8"/>
      <point x="69" y="96"/>
      <point x="40" y="193" type="curve"/>
    </contour>
    <contour>
      <point x="253" y="790" type="line"/>
      <point x="405" y="926" type="line"/>
      <point x="413" y="918" type="line"/>
      <point x="253" y="778" type="line"/>
      <point x="93" y="918" type="line"/>
      <point x="101" y="926" type="line"/>
    </contour>
  </outline>
</glyph>
<glyph name="Tcaron" format="2">
  <advance width="431"/>
  <unicode hex="0164"/>
  <outline>
    <contour>
      <point x="20" y="689" type="line"/>
      <point x="20" y="700" type="line"/>
      <point x="411" y="700" type="line"/>
      <point x="411" y="689" type="line"/>
      <point x="221" y="689" type="line"/>
      <point x="221" y="0" type="line"/>
      <point x="210" y="0" type="line"/>
      <point x="210" y="689" type="line"/>
    </contour>
    <contour>
      <point x="215.5" y="780" type="line"/>
      <point x="367.5" y="916" type="line"/>
      <point x="375.5" y="908" type="line"/>
      <point x="215.5" y="768" type="line"/>
      <point x="55.5" y="908" type="line"/>
      <point x="63.5" y="916" type="line"/>
    </contour>
  </outline>
</glyph>
<glyph name="ycircumflex" format="2">
  <advance width="425"/>
  <unicode hex="0177"/>
  <outline>
    <contour>
      <point x="415" y="460" type="line"/>
      <point x="115" y="-220" type="line"/>
      <point x="104" y="-220" type="line"/>
      <point x="210" y="20" type="line"/>
      <point x="10" y="460" type="line"/>
      <point x="22" y="460" type="line"/>
      <point x="221" y="20" type="line"/>
      <point x="210" y="20" type="line"/>
      <point x="404" y="460" type="line"/>
    </contour>
    <contour>
      <point x="212.5" y="665" type="line"/>
      <point x="59.5" y="530" type="line"/>
      <point x="52.5" y="537" type="line"/>
      <point x="212.5" y="677" type="line"/>
      <point x="372.5" y="537" type="line"/>
      <point x="365.5" y="530" type="line"/>
    </contour>
  </outline>
</glyph>
<glyph name="uni0218" format="2">
  <advance width="488"/>
  <unicode hex="0218"/>
  <outline>
    <contour>
      <point x="50" y="197" type="line"/>
      <point x="77" y="109"/>
      <point x="134" y="3"/>
      <point x="255" y="3" type="curve" smooth="yes"/>
      <point x="385" y="3"/>
      <point x="432" y="77"/>
      <point x="432" y="175" type="curve" smooth="yes"/>
      <point x="432" y="278"/>
      <point x="343" y="331"/>
      <point x="267" y="359" type="curve" smooth="yes"/>
      <point x="187" y="388"/>
      <point x="80" y="442"/>
      <point x="80" y="550" type="curve" smooth="yes"/>
      <point x="80" y="646"/>
      <point x="159" y="708"/>
      <point x="253" y="708" type="curve" smooth="yes"/>
      <point x="366" y="708"/>
      <point x="421" y="621"/>
      <point x="439" y="550" type="curve"/>
      <point x="429" y="548" type="line"/>
      <point x="410" y="615"/>
      <point x="359" y="697"/>
      <point x="253" y="697" type="curve" smooth="yes"/>
      <point x="163" y="697"/>
      <point x="91" y="636"/>
      <point x="91" y="550" type="curve" smooth="yes"/>
      <point x="91" y="450"/>
      <point x="188" y="399"/>
      <point x="273" y="368" type="curve" smooth="yes"/>
      <point x="356" y="338"/>
      <point x="443" y="283"/>
      <point x="443" y="175" type="curve" smooth="yes"/>
      <point x="443" y="76"/>
      <point x="394" y="-8"/>
      <point x="255" y="-8" type="curve" smooth="yes"/>
      <point x="130" y="-8"/>
      <point x="69" y="96"/>
      <point x="40" y="193" type="curve"/>
    </contour>
    <contour>
      <point x="302" y="-68" type="line"/>
      <point x="313" y="-73" type="line"/>
      <point x="203" y="-323" type="line"/>
      <point x="197" y="-321" type="line"/>
    </contour>
  </outline>
</glyph>
<glyph name="gravecomb" format="2">
  <unicode hex="0300"/>
  <outline>
    <contour>
      <point x="173" y="535" type="line"/>
      <point x="0" y="692" type="line"/>
      <point x="8" y="700" type="line"/>
      <point x="178" y="540" type="line"/>
    </contour>
  </outline>
</glyph>
<glyph name="acutecomb" format="2">
  <unicode hex="0301"/>
  <outline>
    <contour>
      <point x="20" y="535" type="line"/>
      <point x="15" y="540" type="line"/>
      <point x="185" y="700" type="line"/>
      <point x="193" y="692" type="line"/>
    </contour>
  </outline>
</glyph>
<glyph name="uni0307" format="2">
  <unicode hex="0307"/>
  <outline>
    <contour>
      <point x="11" y="654" type="curve" smooth="yes"/>
      <point x="5" y="654"/>
      <point x="0" y="659"/>
      <point x="0" y="665" type="curve" smooth="yes"/>
      <point x="0" y="671"/>
      <point x="5" y="676"/>
      <point x="11" y="676" type="curve" smooth="yes"/>
      <point x="17" y="676"/>
      <point x="22" y="671"/>
      <point x="22" y="665" type="curve" smooth="yes"/>
      <point x="22" y="659"/>
      <point x="17" y="654"/>
    </contour>
  </outline>
</glyph>
<glyph name="uni030A" format="2">
  <unicode hex="030A"/>
  <outline>
    <contour>
      <point x="102" y="530" type="curve" smooth="yes"/>
      <point x="46" y="530"/>
      <point x="0" y="574"/>
      <point x="0" y="630" type="curve" smooth="yes"/>
      <point x="0" y="686"/>
      <point x="46" y="730"/>
      <point x="102" y="730" type="curve" smooth="yes"/>
      <point x="158" y="730"/>
      <point x="204" y="686"/>
      <point x="204" y="630" type="curve" smooth="yes"/>
      <point x="204" y="574"/>
      <point x="158" y="530"/>
    </contour>
    <contour>
      <point x="102" y="540" type="curve" smooth="yes"/>
      <point x="153" y="540"/>
      <point x="194" y="580"/>
      <point x="194" y="630" type="curve" smooth="yes"/>
      <point x="194" y="680"/>
      <point x="153" y="720"/>
      <point x="102" y="720" type="curve" smooth="yes"/>
      <point x="51" y="720"/>
      <point x="10" y="680"/>
      <point x="10" y="630" type="curve" smooth="yes"/>
      <point x="10" y="580"/>
      <point x="51" y="540"/>
    </contour>
  </outline>
</glyph>
<glyph name="uni0312" format="2">
  <unicode hex="0312"/>
  <outline>
    <contour>
      <point x="11" y="519" type="line"/>
      <point x="0" y="524" type="line"/>
      <point x="110" y="774" type="line"/>
      <point x="116" y="772" type="line"/>
    </contour>
  </outline>
</glyph>
<glyph name="uni0328" format="2">
  <unicode hex="0328"/>
  <outline>
    <contour>
      <point x="103" y="-220" type="curve" smooth="yes"/>
      <point x="39" y="-220"/>
      <point x="0" y="-189"/>
      <point x="0" y="-140" type="curve" smooth="yes"/>
      <point x="0" y="-71"/>
      <point x="83" y="-26"/>
      <point x="153" y="10" type="curve"/>
      <point x="160" y="0" type="line"/>
      <point x="92" y="-32"/>
      <point x="10" y="-83"/>
      <point x="10" y="-140" type="curve" smooth="yes"/>
      <point x="10" y="-186"/>
      <point x="53" y="-210"/>
      <point x="103" y="-210" type="curve" smooth="yes"/>
      <point x="143" y="-210"/>
      <point x="179" y="-191"/>
      <point x="194" y="-173" type="curve"/>
      <point x="201" y="-180" type="line"/>
      <point x="186" y="-200"/>
      <point x="146" y="-220"/>
    </contour>
  </outline>
</glyph>
<glyph name="uni0413" format="2">
  <advance width="435"/>
  <unicode hex="0413"/>
  <outline>
    <contour>
      <point x="80" y="700" type="line"/>
      <point x="425" y="700" type="line"/>
      <point x="425" y="690" type="line"/>
      <point x="90" y="690" type="line"/>
      <point x="90" y="0" type="line"/>
      <point x="80" y="0" type="line"/>
    </contour>
  </outline>
</glyph>
<glyph name="uni0414" format="2">
  <advance width="795"/>
  <unicode hex="0414"/>
  <outline>
    <contour>
      <point x="395" y="705" type="line"/>
      <point x="122" y="10" type="line"/>
      <point x="110" y="10" type="line"/>
      <point x="395" y="735" type="line"/>
      <point x="680" y="10" type="line"/>
      <point x="668" y="10" type="line"/>
    </contour>
    <contour>
      <point x="740" y="0" type="line"/>
      <point x="50" y="0" type="line"/>
      <point x="50" y="-110" type="line"/>
      <point x="40" y="-110" type="line"/>
      <point x="40" y="10" type="line"/>
      <point x="750" y="10" type="line"/>
      <point x="750" y="-110" type="line"/>
      <point x="740" y="-110" type="line"/>
    </contour>
  </outline>
</glyph>
<glyph name="uni0429" format="2">
  <advance width="955"/>
  <unicode hex="0429"/>
  <outline>
    <contour>
      <point x="820" y="10" type="line"/>
      <point x="820" y="700" type="line"/>
      <point x="830" y="700" type="line"/>
      <point x="830" y="10" type="line"/>
      <point x="915" y="10" type="line"/>
      <point x="915" y="-110" type="line"/>
      <point x="905" y="-110" type="line"/>
      <point x="905" y="0" type="line"/>
      <point x="80" y="0" type="line"/>
      <point x="80" y="700" type="line"/>
      <point x="90" y="700" type="line"/>
      <point x="90" y="10" type="line"/>
      <point x="450" y="10" type="line"/>
      <point x="450" y="700" type="line"/>
      <point x="460" y="700" type="line"/>
      <point x="460" y="10" type="line"/>
    </contour>
  </outline>
</glyph>
<glyph name="uni042D" format="2">
  <advance width="685"/>
  <unicode hex="042D"/>
  <outline>
    <contour>
      <point x="162" y="345" type="line"/>
      <point x="162" y="355" type="line"/>
      <point x="623" y="355" type="line"/>
      <point x="623" y="345" type="line"/>
    </contour>
    <contour>
      <point x="623" y="350" type="curve" smooth="yes"/>
      <point x="623" y="553"/>
      <point x="491" y="696"/>
      <point x="305" y="696" type="curve" smooth="yes"/>
      <point x="211" y="696"/>
      <point x="136" y="669"/>
      <point x="80" y="613" type="curve"/>
      <point x="80" y="628" type="line"/>
      <point x="139" y="680"/>
      <point x="203" y="708"/>
      <point x="305" y="708" type="curve" smooth="yes"/>
      <point x="499" y="708"/>
      <point x="635" y="559"/>
      <point x="635" y="350" type="curve" smooth="yes"/>
      <point x="635" y="141"/>
      <point x="499" y="-8"/>
      <point x="305" y="-8" type="curve" smooth="yes"/>
      <point x="203" y="-8"/>
      <point x="139" y="20"/>
      <point x="80" y="72" type="curve"/>
      <point x="80" y="88" type="line"/>
      <point x="138" y="31"/>
      <point x="206" y="4"/>
      <point x="305" y="4" type="curve" smooth="yes"/>
      <point x="492" y="4"/>
      <point x="623" y="150"/>
    </contour>
  </outline>
</glyph>
<glyph name="uni0433" format="2">
  <advance width="300"/>
  <unicode hex="0433"/>
  <outline>
    <contour>
      <point x="80" y="460" type="line"/>
      <point x="295" y="460" type="line"/>
      <point x="295" y="450" type="line"/>
      <point x="90" y="450" type="line"/>
      <point x="90" y="0" type="line"/>
      <point x="80" y="0" type="line"/>
    </contour>
  </outline>
</glyph>
<glyph name="uni0448" format="2">
  <advance width="710"/>
  <unicode hex="0448"/>
  <outline>
    <contour>
      <point x="360" y="10" type="line"/>
      <point x="625" y="10" type="line"/>
      <point x="625" y="460" type="line"/>
      <point x="635" y="460" type="line"/>
      <point x="635" y="0" type="line"/>
      <point x="75" y="0" type="line"/>
      <point x="75" y="460" type="line"/>
      <point x="85" y="460" type="line"/>
      <point x="85" y="10" type="line"/>
      <point x="350" y="10" type="line"/>
      <point x="350" y="460" type="line"/>
      <point x="360" y="460" type="line"/>
    </contour>
  </outline>
</glyph>
<glyph name="uni0449" format="2">
  <advance width="750"/>
  <unicode hex="0449"/>
  <outline>
    <contour>
      <point x="360" y="10" type="line"/>
      <point x="625" y="10" type="line"/>
      <point x="625" y="460" type="line"/>
      <point x="635" y="460" type="line"/>
      <point x="635" y="10" type="line"/>
      <point x="715" y="10" type="line"/>
      <point x="715" y="-90" type="line"/>
      <point x="705" y="-90" type="line"/>
      <point x="705" y="0" type="line"/>
      <point x="75" y="0" type="line"/>
      <point x="75" y="460" type="line"/>
      <point x="85" y="460" type="line"/>
      <point x="85" y="10" type="line"/>
      <point x="350" y="10" type="line"/>
      <point x="350" y="460" type="line"/>
      <point x="360" y="460" type="line"/>
    </contour>
  </outline>
</glyph>
<glyph name="uni044C" format="2">
  <advance width="413"/>
  <unicode hex="044C"/>
  <outline>
    <contour>
      <point x="75" y="460" type="line"/>
      <point x="85" y="460" type="line"/>
      <point x="85" y="0" type="line"/>
      <point x="75" y="0" type="line"/>
    </contour>
    <contour>
      <point x="77" y="276" type="line"/>
      <point x="77" y="286" type="line"/>
      <point x="195" y="286" type="line" smooth="yes"/>
      <point x="290" y="286"/>
      <point x="363" y="242"/>
      <point x="363" y="143" type="curve" smooth="yes"/>
      <point x="363" y="44"/>
      <point x="290" y="0"/>
      <point x="195" y="0" type="curve" smooth="yes"/>
      <point x="77" y="0" type="line"/>
      <point x="77" y="10" type="line"/>
      <point x="195" y="10" type="line" smooth="yes"/>
      <point x="283" y="10"/>
      <point x="353" y="47"/>
      <point x="353" y="143" type="curve" smooth="yes"/>
      <point x="353" y="234"/>
      <point x="283" y="276"/>
      <point x="195" y="276" type="curve" smooth="yes"/>
    </contour>
  </outline>
</glyph>
<glyph name="quotedblbase" format="2">
  <advance width="385"/>
  <unicode hex="201E"/>
  <outline>
    <contour>
      <point x="153" y="80" type="line"/>
      <point x="165" y="80" type="line"/>
      <point x="70" y="-150" type="line"/>
      <point x="60" y="-150" type="line"/>
    </contour>
    <contour>
      <point x="293" y="80" type="line"/>
      <point x="305" y="80" type="line"/>
      <point x="210" y="-150" type="line"/>
      <point x="200" y="-150" type="line"/>
    </contour>
  </outline>
</glyph>
<glyph name="uni2070" format="2">
  <advance width="324"/>
  <unicode hex="2070"/>
  <outline>
    <contour>
      <point x="42" y="490" type="curve" smooth="yes"/>
      <point x="42" y="378"/>
      <point x="88" y="280"/>
      <point x="167" y="280" type="curve" smooth="yes"/>
      <point x="246" y="280"/>
      <point x="292" y="378"/>
      <point x="292" y="490" type="curve" smooth="yes"/>
      <point x="292" y="602"/>
      <point x="246" y="700"/>
      <point x="167" y="700" type="curve" smooth="yes"/>
      <point x="88" y="700"/>
      <point x="42" y="602"/>
    </contour>
    <contour>
      <point x="35" y="490" type="curve" smooth="yes"/>
      <point x="35" y="609"/>
      <point x="84" y="706"/>
      <point x="167" y="706" type="curve" smooth="yes"/>
      <point x="250" y="706"/>
      <point x="299" y="609"/>
      <point x="299" y="490" type="curve" smooth="yes"/>
      <point x="299" y="371"/>
      <point x="250" y="274"/>
      <point x="167" y="274" type="curve" smooth="yes"/>
      <point x="84" y="274"/>
      <point x="35" y="371"/>
    </contour>
  </outline>
</glyph>
<glyph name="uni2076" format="2">
  <advance width="332"/>
  <unicode hex="2076"/>
  <outline>
    <contour>
      <point x="46" y="410" type="curve" smooth="yes"/>
      <point x="46" y="334"/>
      <point x="96" y="278"/>
      <point x="171" y="278" type="curve" smooth="yes"/>
      <point x="246" y="278"/>
      <point x="296" y="334"/>
      <point x="296" y="410" type="curve" smooth="yes"/>
      <point x="296" y="480"/>
      <point x="241" y="534"/>
      <point x="178" y="534" type="curve" smooth="yes"/>
      <point x="94" y="534"/>
      <point x="46" y="474"/>
    </contour>
    <contour>
      <point x="208" y="698" type="line"/>
      <point x="216" y="698" type="line"/>
      <point x="70" y="491" type="line"/>
      <point x="70" y="491" type="line"/>
      <point x="95" y="522"/>
      <point x="133" y="540"/>
      <point x="178" y="540" type="curve" smooth="yes"/>
      <point x="246" y="540"/>
      <point x="302" y="481"/>
      <point x="302" y="410" type="curve" smooth="yes"/>
      <point x="302" y="330"/>
      <point x="252" y="272"/>
      <point x="171" y="272" type="curve" smooth="yes"/>
      <point x="90" y="272"/>
      <point x="40" y="330"/>
      <point x="40" y="410" type="curve" smooth="yes"/>
      <point x="40" y="444"/>
      <point x="58" y="483"/>
      <point x="74" y="505" type="curve" smooth="yes"/>
    </contour>
  </outline>
</glyph>
<glyph name="uni2089" format="2">
  <advance width="332"/>
  <unicode hex="2089"/>
  <outline>
    <contour>
      <point x="286" y="290" type="curve" smooth="yes"/>
      <point x="286" y="366"/>
      <point x="236" y="422"/>
      <point x="161" y="422" type="curve" smooth="yes"/>
      <point x="86" y="422"/>
      <point x="36" y="366"/>
      <point x="36" y="290" type="curve" smooth="yes"/>
      <point x="36" y="220"/>
      <point x="92" y="166"/>
      <point x="155" y="166" type="curve" smooth="yes"/>
      <point x="239" y="166"/>
      <point x="286" y="226"/>
    </contour>
    <contour>
      <point x="124" y="2" type="line"/>
      <point x="117" y="2" type="line"/>
      <point x="262" y="209" type="line"/>
      <point x="262" y="209" type="line"/>
      <point x="237" y="178"/>
      <point x="200" y="160"/>
      <point x="155" y="160" type="curve" smooth="yes"/>
      <point x="87" y="160"/>
      <point x="30" y="219"/>
      <point x="30" y="290" type="curve" smooth="yes"/>
      <point x="30" y="370"/>
      <point x="80" y="428"/>
      <point x="161" y="428" type="curve" smooth="yes"/>
      <point x="242" y="428"/>
      <point x="292" y="370"/>
      <point x="292" y="290" type="curve" smooth="yes"/>
      <point x="292" y="256"/>
      <point x="274" y="217"/>
      <point x="258" y="195" type="curve" smooth="yes"/>
    </contour>
  </outline>
</glyph>
<glyph name="trademark" format="2">
  <advance width="665"/>
  <unicode hex="2122"/>
  <outline>
    <contour>
      <point x="38" y="694" type="line"/>
      <point x="38" y="700" type="line"/>
      <point x="234" y="700" type="line"/>
      <point x="234" y="694" type="line"/>
      <point x="138" y="694" type="line"/>
      <point x="138" y="350" type="line"/>
      <point x="133" y="350" type="line"/>
      <point x="133" y="694" type="line"/>
    </contour>
    <contour>
      <point x="592" y="688" type="line"/>
      <point x="596" y="708" type="line"/>
      <point x="633" y="350" type="line"/>
      <point x="628" y="350" type="line"/>
    </contour>
    <contour>
      <point x="316" y="708" type="line"/>
      <point x="319" y="688" type="line"/>
      <point x="284" y="350" type="line"/>
      <point x="278" y="350" type="line"/>
    </contour>
    <contour>
      <point x="596" y="708" type="line"/>
      <point x="592" y="688" type="line"/>
      <point x="456" y="402" type="line"/>
      <point x="319" y="688" type="line"/>
      <point x="316" y="708" type="line"/>
      <point x="456" y="415" type="line"/>
    </contour>
  </outline>
</glyph>
<glyph name="onethird" format="2">
  <advance width="755"/>
  <unicode hex="2153"/>
  <outline>
    <contour>
      <point x="621" y="700" type="line"/>
      <point x="633" y="700" type="line"/>
      <point x="60" y="0" type="line"/>
      <point x="48" y="0" type="line"/>
    </contour>
    <contour>
      <point x="21" y="666" type="line"/>
      <point x="21" y="673" type="line"/>
      <point x="129" y="697" type="line"/>
      <point x="129" y="274" type="line"/>
      <point x="123" y="274" type="line"/>
      <point x="123" y="689" type="line"/>
    </contour>
    <contour>
      <point x="578" y="217" type="curve"/>
      <point x="578" y="222" type="line"/>
      <point x="632" y="222"/>
      <point x="703" y="258"/>
      <point x="703" y="320" type="curve" smooth="yes"/>
      <point x="703" y="370"/>
      <point x="666" y="420"/>
      <point x="599" y="420" type="curve" smooth="yes"/>
      <point x="534" y="420"/>
      <point x="492" y="377"/>
      <point x="492" y="316" type="curve"/>
      <point x="486" y="316" type="line"/>
      <point x="486" y="381"/>
      <point x="530" y="426"/>
      <point x="599" y="426" type="curve" smooth="yes"/>
      <point x="671" y="426"/>
      <point x="709" y="373"/>
      <point x="709" y="320" type="curve" smooth="yes"/>
      <point x="709" y="255"/>
      <point x="641" y="217"/>
    </contour>
    <contour>
      <point x="596" y="-6" type="curve" smooth="yes"/>
      <point x="515" y="-6"/>
      <point x="468" y="46"/>
      <point x="468" y="111" type="curve"/>
      <point x="474" y="111" type="line"/>
      <point x="474" y="47"/>
      <point x="518" y="0"/>
      <point x="596" y="0" type="curve" smooth="yes"/>
      <point x="668" y="0"/>
      <point x="715" y="44"/>
      <point x="715" y="105" type="curve" smooth="yes"/>
      <point x="715" y="180"/>
      <point x="632" y="216"/>
      <point x="578" y="216" type="curve"/>
      <point x="578" y="221" type="line"/>
      <point x="641" y="221"/>
      <point x="721" y="182"/>
      <point x="721" y="105" type="curve" smooth="yes"/>
      <point x="721" y="40"/>
      <point x="671" y="-6"/>
    </contour>
  </outline>
</glyph>
<glyph name="partialdiff" format="2">
  <advance width="536"/>
  <unicode hex="2202"/>
  <outline>
    <contour>
      <point x="268" y="-10" type="curve" smooth="yes"/>
      <point x="137" y="-10"/>
      <point x="50" y="82"/>
      <point x="50" y="220" type="curve" smooth="yes"/>
      <point x="50" y="340"/>
      <point x="143" y="437"/>
      <point x="257" y="437" type="curve" smooth="yes"/>
      <point x="331" y="437"/>
      <point x="393" y="409"/>
      <point x="436" y="355" type="curve"/>
      <point x="436" y="354" type="line"/>
      <point x="364" y="468"/>
      <point x="335" y="510"/>
      <point x="199" y="694" type="curve"/>
      <point x="206" y="700" type="line"/>
      <point x="445" y="370"/>
      <point x="486" y="319"/>
      <point x="486" y="220" type="curve" smooth="yes"/>
      <point x="486" y="82"/>
      <point x="399" y="-10"/>
    </contour>
    <contour>
      <point x="268" y="0" type="curve" smooth="yes"/>
      <point x="390" y="0"/>
      <point x="476" y="92"/>
      <point x="476" y="220" type="curve" smooth="yes"/>
      <point x="476" y="339"/>
      <point x="383" y="427"/>
      <point x="257" y="427" type="curve" smooth="yes"/>
      <point x="150" y="427"/>
      <point x="60" y="332"/>
      <point x="60" y="220" type="curve" smooth="yes"/>
      <point x="60" y="91"/>
      <point x="146" y="0"/>
    </contour>
  </outline>
</glyph>
<glyph name="uni2215" format="2">
  <advance width="475"/>
  <unicode hex="2215"/>
  <outline>
    <contour>
      <point x="448" y="700" type="line"/>
      <point x="460" y="700" type="line"/>
      <point x="27" y="-150" type="line"/>
      <point x="15" y="-150" type="line"/>
    </contour>
  </outline>
</glyph>
<glyph name="infinity" format="2">
  <advance width="826"/>
  <unicode hex="221E"/>
  <outline>
    <contour>
      <point x="191" y="74" type="curve" smooth="yes"/>
      <point x="101" y="74"/>
      <point x="22" y="157"/>
      <point x="22" y="255" type="curve" smooth="yes"/>
      <point x="22" y="353"/>
      <point x="101" y="436"/>
      <point x="191" y="436" type="curve" smooth="yes"/>
      <point x="265" y="436"/>
      <point x="337" y="379"/>
      <point x="413" y="263" type="curve"/>
      <point x="489" y="379"/>
      <point x="561" y="436"/>
      <point x="635" y="436" type="curve" smooth="yes"/>
      <point x="725" y="436"/>
      <point x="804" y="351"/>
      <point x="804" y="255" type="curve" smooth="yes"/>
      <point x="804" y="157"/>
      <point x="726" y="74"/>
      <point x="635" y="74" type="curve" smooth="yes"/>
      <point x="561" y="74"/>
      <point x="489" y="131"/>
      <point x="413" y="247" type="curve"/>
      <point x="337" y="131"/>
      <point x="265" y="74"/>
    </contour>
    <contour>
      <point x="189" y="84" type="curve" smooth="yes"/>
      <point x="261" y="84"/>
      <point x="341" y="147"/>
      <point x="408" y="255" type="curve"/>
      <point x="341" y="363"/>
      <point x="261" y="426"/>
      <point x="189" y="426" type="curve" smooth="yes"/>
      <point x="106" y="426"/>
      <point x="32" y="345"/>
      <point x="32" y="255" type="curve" smooth="yes"/>
      <point x="32" y="165"/>
      <point x="106" y="84"/>
    </contour>
    <contour>
      <point x="637" y="84" type="curve" smooth="yes"/>
      <point x="719" y="84"/>
      <point x="794" y="165"/>
      <point x="794" y="255" type="curve" smooth="yes"/>
      <point x="794" y="347"/>
      <point x="721" y="426"/>
      <point x="637" y="426" type="curve" smooth="yes"/>
      <point x="565" y="426"/>
      <point x="485" y="363"/>
      <point x="418" y="255" type="curve"/>
      <point x="485" y="147"/>
      <point x="565" y="84"/>
    </contour>
  </outline>
</glyph>
<glyph name="notequal" format="2">
  <advance width="600"/>
  <unicode hex="2260"/>
  <outline>
    <contour>
      <point x="98" y="40" type="line"/>
      <point x="508" y="450" type="line"/>
      <point x="502" y="456" type="line"/>
      <point x="92" y="46" type="line"/>
    </contour>
    <contour>
      <point x="65" y="185" type="line"/>
      <point x="550" y="185" type="line"/>
      <point x="550" y="195" type="line"/>
      <point x="65" y="195" type="line"/>
    </contour>
    <contour>
      <point x="65" y="310" type="line"/>
      <point x="550" y="310" type="line"/>
      <point x="550" y="320" type="line"/>
      <point x="65" y="320" type="line"/>
    </contour>
  </outline>
</glyph>
<glyph name="greaterequal" format="2">
  <advance width="600"/>
  <unicode hex="2265"/>
  <outline>
    <contour>
      <point x="65" y="0" type="line"/>
      <point x="575" y="0" type="line"/>
      <point x="575" y="10" type="line"/>
      <point x="65" y="10" type="line"/>
    </contour>
    <contour>
      <point x="65" y="75" type="line"/>
      <point x="575" y="285" type="line"/>
      <point x="575" y="291" type="line"/>
      <point x="65" y="500" type="line"/>
      <point x="65" y="490" type="line"/>
      <point x="558" y="288" type="line"/>
      <point x="65" y="85" type="line"/>
    </contour>
  </outline>
</glyph>
<glyph name="uniFF15" format="2">
  <advance width="550"/>
  <unicode hex="FF15"/>
  <outline>
    <contour>
      <point x="486" y="230" type="curve" smooth="yes"/>
      <point x="486" y="71"/>
      <point x="385" y="-10"/>
      <point x="260" y="-10" type="curve" smooth="yes"/>
      <point x="151" y="-10"/>
      <point x="88" y="47"/>
      <point x="52" y="137" type="curve"/>
      <point x="60" y="142" type="line"/>
      <point x="96" y="54"/>
      <point x="155" y="0"/>
      <point x="260" y="0" type="curve" smooth="yes"/>
      <point x="380" y="0"/>
      <point x="476" y="79"/>
      <point x="476" y="230" type="curve" smooth="yes"/>
      <point x="476" y="351"/>
      <point x="391" y="436"/>
      <point x="286" y="436" type="curve" smooth="yes"/>
      <point x="199" y="436"/>
      <point x="133" y="397"/>
      <point x="82" y="327" type="curve"/>
      <point x="100" y="359" type="line"/>
      <point x="130" y="404"/>
      <point x="197" y="446"/>
      <point x="286" y="446" type="curve" smooth="yes"/>
      <point x="396" y="446"/>
      <point x="486" y="359"/>
    </contour>
    <contour>
      <point x="180" y="690" type="line"/>
      <point x="100" y="359" type="line"/>
      <point x="82" y="327" type="line"/>
      <point x="174" y="700" type="line"/>
      <point x="504" y="700" type="line"/>
      <point x="504" y="690" type="line"/>
    </contour>
  </outline>
</glyph>
<glyph name="aacute.alt" format="2">
  <advance width="541"/>
  <outline>
    <contour>
      <point x="451" y="460" type="line"/>
      <point x="461" y="460" type="line"/>
      <point x="461" y="0" type="line"/>
      <point x="451" y="0" type="line"/>
    </contour>
    <contour>
      <point x="45" y="230" type="curve" smooth="yes"/>
      <point x="45" y="377"/>
      <point x="138" y="470"/>
      <point x="258" y="470" type="curve" smooth="yes"/>
      <point x="381" y="470"/>
      <point x="456" y="349"/>
      <point x="456" y="230" type="curve" smooth="yes"/>
      <point x="456" y="111"/>
      <point x="381" y="-10"/>
      <point x="258" y="-10" type="curve" smooth="yes"/>
      <point x="138" y="-10"/>
      <point x="45" y="83"/>
    </contour>
    <contour>
      <point x="55" y="230" type="curve" smooth="yes"/>
      <point x="55" y="89"/>
      <point x="145" y="0"/>
      <point x="261" y="0" type="curve" smooth="yes"/>
      <point x="370" y="0"/>
      <point x="451" y="114"/>
      <point x="451" y="230" type="curve" smooth="yes"/>
      <point x="451" y="346"/>
      <point x="370" y="460"/>
      <point x="261" y="460" type="curve" smooth="yes"/>
      <point x="145" y="460"/>
      <point x="55" y="371"/>
    </contour>
    <contour>
      <point x="354" y="697" type="line"/>
      <point x="180" y="540" type="line"/>
      <point x="176" y="545" type="line"/>
      <point x="346" y="705" type="line"/>
    </contour>
  </outline>
</glyph>
<glyph name="aring.alt" format="2">
  <advance width="541"/>
  <outline>
    <contour>
      <point x="451" y="460" type="line"/>
      <point x="461" y="460" type="line"/>
      <point x="461" y="0" type="line"/>
      <point x="451" y="0" type="line"/>
    </contour>
    <contour>
      <point x="45" y="230" type="curve" smooth="yes"/>
      <point x="45" y="377"/>
      <point x="138" y="470"/>
      <point x="258" y="470" type="curve" smooth="yes"/>
      <point x="381" y="470"/>
      <point x="456" y="349"/>
      <point x="456" y="230" type="curve" smooth="yes"/>
      <point x="456" y="111"/>
      <point x="381" y="-10"/>
      <point x="258" y="-10" type="curve" smooth="yes"/>
      <point x="138" y="-10"/>
      <point x="45" y="83"/>
    </contour>
    <contour>
      <point x="55" y="230" type="curve" smooth="yes"/>
      <point x="55" y="89"/>
      <point x="145" y="0"/>
      <point x="261" y="0" type="curve" smooth="yes"/>
      <point x="370" y="0"/>
      <point x="451" y="114"/>
      <point x="451" y="230" type="curve" smooth="yes"/>
      <point x="451" y="346"/>
      <point x="370" y="460"/>
      <point x="261" y="460" type="curve" smooth="yes"/>
      <point x="145" y="460"/>
      <point x="55" y="371"/>
    </contour>
    <contour>
      <point x="156" y="630" type="curve" smooth="yes"/>
      <point x="156" y="690"/>
      <point x="206" y="730"/>
      <point x="258" y="730" type="curve" smooth="yes"/>
      <point x="310" y="730"/>
      <point x="360" y="690"/>
      <point x="360" y="630" type="curve" smooth="yes"/>
      <point x="360" y="570"/>
      <point x="310" y="530"/>
      <point x="258" y="530" type="curve" smooth="yes"/>
      <point x="206" y="530"/>
      <point x="156" y="570"/>
    </contour>
    <contour>
      <point x="166" y="630" type="curve" smooth="yes"/>
      <point x="166" y="577"/>
      <point x="210" y="540"/>
      <point x="258" y="540" type="curve" smooth="yes"/>
      <point x="306" y="540"/>
      <point x="350" y="577"/>
      <point x="350" y="630" type="curve" smooth="yes"/>
      <point x="350" y="683"/>
      <point x="306" y="720"/>
      <point x="258" y="720" type="curve" smooth="yes"/>
      <point x="210" y="720"/>
      <point x="166" y="683"/>
    </contour>
  </outline>
</glyph>
<glyph name="atilde.alt" format="2">
  <advance width="541"/>
  <outline>
    <contour>
      <point x="451" y="460" type="line"/>
      <point x="461" y="460" type="line"/>
      <point x="461" y="0" type="line"/>
      <point x="451" y="0" type="line"/>
    </contour>
    <contour>
      <point x="45" y="230" type="curve" smooth="yes"/>
      <point x="45" y="377"/>
      <point x="138" y="470"/>
      <point x="258" y="470" type="curve" smooth="yes"/>
      <point x="381" y="470"/>
      <point x="456" y="349"/>
      <point x="456" y="230" type="curve" smooth="yes"/>
      <point x="456" y="111"/>
      <point x="381" y="-10"/>
      <point x="258" y="-10" type="curve" smooth="yes"/>
      <point x="138" y="-10"/>
      <point x="45" y="83"/>
    </contour>
    <contour>
      <point x="55" y="230" type="curve" smooth="yes"/>
      <point x="55" y="89"/>
      <point x="145" y="0"/>
      <point x="261" y="0" type="curve" smooth="yes"/>
      <point x="370" y="0"/>
      <point x="451" y="114"/>
      <point x="451" y="230" type="curve" smooth="yes"/>
      <point x="451" y="346"/>
      <point x="370" y="460"/>
      <point x="261" y="460" type="curve" smooth="yes"/>
      <point x="145" y="460"/>
      <point x="55" y="371"/>
    </contour>
    <contour>
      <point x="132" y="551" type="line"/>
      <point x="132" y="580"/>
      <point x="149" y="609"/>
      <point x="194" y="609" type="curve" smooth="yes"/>
      <point x="249" y="609"/>
      <point x="264" y="562"/>
      <point x="318" y="562" type="curve" smooth="yes"/>
      <point x="347" y="562"/>
      <point x="359" y="578"/>
      <point x="374" y="610" type="curve"/>
      <point x="384" y="607" type="line"/>
      <point x="368" y="570"/>
      <point x="348" y="554"/>
      <point x="318" y="554" type="curve" smooth="yes"/>
      <point x="263" y="554"/>
      <point x="241" y="601"/>
      <point x="196" y="601" type="curve" smooth="yes"/>
      <point x="155" y="601"/>
      <point x="142" y="575"/>
      <point x="142" y="550" type="curve"/>
    </contour>
  </outline>
</glyph>
